<svg width="1435" height="152" viewBox="0 0 1435 152" fill="none" xmlns="http://www.w3.org/2000/svg">
<path d="M60.233 151.812C48.641 151.812 37.877 150.018 27.941 146.43C18.143 142.704 9.587 137.46 2.273 130.698C-4.903 123.936 -10.492 115.932 -14.494 106.686C-18.496 97.44 -20.497 87.228 -20.497 76.05C-20.497 64.872 -18.496 54.66 -14.494 45.414C-10.492 36.168 -4.903 28.164 2.273 21.402C9.587 14.64 18.143 9.46499 27.941 5.877C37.877 2.151 48.641 0.287996 60.233 0.287996C74.447 0.287996 87.005 2.772 97.907 7.74C108.947 12.708 118.055 19.884 125.231 29.268L94.388 56.799C90.11 51.417 85.349 47.277 80.105 44.379C74.999 41.343 69.203 39.825 62.717 39.825C57.611 39.825 52.988 40.653 48.848 42.309C44.708 43.965 41.12 46.38 38.084 49.554C35.186 52.728 32.909 56.592 31.253 61.146C29.597 65.562 28.769 70.53 28.769 76.05C28.769 81.57 29.597 86.607 31.253 91.161C32.909 95.577 35.186 99.372 38.084 102.546C41.12 105.72 44.708 108.135 48.848 109.791C52.988 111.447 57.611 112.275 62.717 112.275C69.203 112.275 74.999 110.826 80.105 107.928C85.349 104.892 90.11 100.683 94.388 95.301L125.231 122.832C118.055 132.078 108.947 139.254 97.907 144.36C87.005 149.328 74.447 151.812 60.233 151.812ZM212.273 151.812C200.543 151.812 189.641 149.949 179.567 146.223C169.631 142.497 161.006 137.253 153.692 130.491C146.378 123.591 140.651 115.518 136.511 106.272C132.509 97.026 130.508 86.952 130.508 76.05C130.508 65.01 132.509 54.936 136.511 45.828C140.651 36.582 146.378 28.578 153.692 21.816C161.006 14.916 169.631 9.60299 179.567 5.877C189.641 2.151 200.543 0.287996 212.273 0.287996C224.141 0.287996 235.043 2.151 244.979 5.877C254.915 9.60299 263.54 14.916 270.854 21.816C278.168 28.578 283.826 36.582 287.828 45.828C291.968 54.936 294.038 65.01 294.038 76.05C294.038 86.952 291.968 97.026 287.828 106.272C283.826 115.518 278.168 123.591 270.854 130.491C263.54 137.253 254.915 142.497 244.979 146.223C235.043 149.949 224.141 151.812 212.273 151.812ZM212.273 112.275C216.827 112.275 221.036 111.447 224.9 109.791C228.902 108.135 232.352 105.789 235.25 102.753C238.286 99.579 240.632 95.784 242.288 91.368C243.944 86.814 244.772 81.708 244.772 76.05C244.772 70.392 243.944 65.355 242.288 60.939C240.632 56.385 238.286 52.59 235.25 49.554C232.352 46.38 228.902 43.965 224.9 42.309C221.036 40.653 216.827 39.825 212.273 39.825C207.719 39.825 203.441 40.653 199.439 42.309C195.575 43.965 192.125 46.38 189.089 49.554C186.191 52.59 183.914 56.385 182.258 60.939C180.602 65.355 179.774 70.392 179.774 76.05C179.774 81.708 180.602 86.814 182.258 91.368C183.914 95.784 186.191 99.579 189.089 102.753C192.125 105.789 195.575 108.135 199.439 109.791C203.441 111.447 207.719 112.275 212.273 112.275ZM311.769 148.5V3.59999H351.927L425.619 91.782H406.989V3.59999H454.599V148.5H414.441L340.749 60.318H359.379V148.5H311.769ZM523.677 65.286H587.433V102.132H523.677V65.286ZM526.989 148.5H478.137V3.59999H595.92V40.446H526.989V148.5ZM611.353 148.5V3.59999H660.205V148.5H611.353ZM683.722 148.5V3.59999H755.137C771.283 3.59999 785.497 6.56699 797.779 12.501C810.061 18.297 819.652 26.577 826.552 37.341C833.452 48.105 836.902 60.939 836.902 75.843C836.902 90.885 833.452 103.857 826.552 114.759C819.652 125.523 810.061 133.872 797.779 139.806C785.497 145.602 771.283 148.5 755.137 148.5H683.722ZM732.574 110.412H753.067C759.967 110.412 765.97 109.101 771.076 106.479C776.32 103.857 780.391 99.993 783.289 94.887C786.187 89.643 787.636 83.295 787.636 75.843C787.636 68.529 786.187 62.319 783.289 57.213C780.391 52.107 776.32 48.243 771.076 45.621C765.97 42.999 759.967 41.688 753.067 41.688H732.574V110.412ZM899.451 57.42H964.035V92.61H899.451V57.42ZM902.763 111.654H975.213V148.5H854.739V3.59999H972.522V40.446H902.763V111.654ZM994.02 148.5V3.59999H1034.18L1107.87 91.782H1089.24V3.59999H1136.85V148.5H1096.69L1023 60.318H1041.63V148.5H994.02ZM1235.32 151.812C1223.73 151.812 1212.97 150.018 1203.03 146.43C1193.23 142.704 1184.68 137.46 1177.36 130.698C1170.19 123.936 1164.6 115.932 1160.59 106.686C1156.59 97.44 1154.59 87.228 1154.59 76.05C1154.59 64.872 1156.59 54.66 1160.59 45.414C1164.6 36.168 1170.19 28.164 1177.36 21.402C1184.68 14.64 1193.23 9.46499 1203.03 5.877C1212.97 2.151 1223.73 0.287996 1235.32 0.287996C1249.54 0.287996 1262.09 2.772 1273 7.74C1284.04 12.708 1293.14 19.884 1300.32 29.268L1269.48 56.799C1265.2 51.417 1260.44 47.277 1255.19 44.379C1250.09 41.343 1244.29 39.825 1237.81 39.825C1232.7 39.825 1228.08 40.653 1223.94 42.309C1219.8 43.965 1216.21 46.38 1213.17 49.554C1210.27 52.728 1208 56.592 1206.34 61.146C1204.69 65.562 1203.86 70.53 1203.86 76.05C1203.86 81.57 1204.69 86.607 1206.34 91.161C1208 95.577 1210.27 99.372 1213.17 102.546C1216.21 105.72 1219.8 108.135 1223.94 109.791C1228.08 111.447 1232.7 112.275 1237.81 112.275C1244.29 112.275 1250.09 110.826 1255.19 107.928C1260.44 104.892 1265.2 100.683 1269.48 95.301L1300.32 122.832C1293.14 132.078 1284.04 139.254 1273 144.36C1262.09 149.328 1249.54 151.812 1235.32 151.812ZM1359.14 57.42H1423.72V92.61H1359.14V57.42ZM1362.45 111.654H1434.9V148.5H1314.42V3.59999H1432.21V40.446H1362.45V111.654Z" fill="white"/>
</svg>
