<svg width="502" height="543" viewBox="0 0 502 543" fill="none" xmlns="http://www.w3.org/2000/svg">
<mask id="mask0_181_262" style="mask-type:luminance" maskUnits="userSpaceOnUse" x="0" y="44" width="80" height="80">
<path d="M0 44H79.1135V123.113H0V44Z" fill="white"/>
</mask>
<g mask="url(#mask0_181_262)">
<path d="M79.1073 83.5536C49.4421 89.0147 45.0147 93.4421 39.5536 123.107C34.0923 93.4421 29.6652 89.0147 0 83.5536C29.6652 78.0923 34.0923 73.6652 39.5536 44C45.0147 73.6652 49.4421 78.0923 79.1073 83.5536Z" fill="#CDA42A"/>
</g>
<mask id="mask1_181_262" style="mask-type:luminance" maskUnits="userSpaceOnUse" x="369" y="489" width="54" height="54">
<path d="M369 489H422.494V542.494H369V489Z" fill="white"/>
</mask>
<g mask="url(#mask1_181_262)">
<path d="M422.49 515.745C402.431 519.438 399.438 522.431 395.745 542.49C392.052 522.431 389.059 519.438 369 515.745C389.059 512.052 392.052 509.059 395.745 489C399.438 509.059 402.431 512.052 422.49 515.745Z" fill="#CDA42A"/>
</g>
<mask id="mask2_181_262" style="mask-type:luminance" maskUnits="userSpaceOnUse" x="456" y="0" width="46" height="46">
<path d="M456 0H502V46H456V0Z" fill="white"/>
</mask>
<g mask="url(#mask2_181_262)">
<path d="M501.996 22.9982C484.748 26.1735 482.173 28.7478 478.998 45.9962C475.823 28.7478 473.249 26.1735 456 22.9982C473.249 19.8227 475.823 17.2487 478.998 0C482.173 17.2487 484.748 19.8227 501.996 22.9982Z" fill="#CDA42A"/>
</g>
</svg>
