<svg width="330" height="195" viewBox="0 0 330 195" fill="none" xmlns="http://www.w3.org/2000/svg">
<g clip-path="url(#clip0_133_1481)">
<path d="M319.486 164.819C316.326 175.78 307.098 183.453 297.472 189.971C296.128 190.882 294.784 191.771 293.439 192.639C293.43 192.643 293.42 192.652 293.411 192.656C293.347 192.698 293.282 192.739 293.221 192.781C292.944 192.96 292.666 193.139 292.391 193.316L292.542 193.384C292.542 193.384 292.691 193.463 292.528 193.396C292.48 193.376 292.429 193.358 292.381 193.338C286.789 191.083 281.098 188.662 276.812 184.438C272.367 180.051 269.769 173.171 272.176 167.409C272.492 166.654 272.892 165.937 273.367 165.27C273.563 164.991 273.773 164.724 273.992 164.461C275.32 162.841 277.055 161.603 279.02 160.876C280.985 160.149 283.108 159.958 285.171 160.323C287.234 160.688 289.162 161.595 290.758 162.952C292.354 164.31 293.56 166.067 294.251 168.045C294.958 161.462 289.529 155.947 284.304 151.879C279.076 147.812 273.137 143.383 272.126 136.837C271.562 133.194 272.829 129.665 275.137 126.831C275.208 126.745 275.279 126.659 275.353 126.575C278.162 123.275 282.113 121.155 286.417 120.641C294.433 119.808 302.218 124.05 308.041 129.621C317.413 138.586 323.079 152.356 319.486 164.819Z" fill="#F2F2F2"/>
<path d="M304.42 150.481C305.958 152.874 307.139 155.479 307.926 158.212C308.591 160.655 308.887 163.184 308.804 165.715C308.59 170.923 307.127 176.003 304.54 180.528C302.591 183.961 300.217 187.134 297.472 189.972C296.128 190.882 294.783 191.771 293.439 192.64C293.429 192.644 293.42 192.652 293.411 192.656C293.346 192.698 293.281 192.739 293.221 192.781C292.943 192.96 292.666 193.139 292.391 193.316C292.391 193.316 292.69 193.463 292.528 193.396C292.479 193.376 292.429 193.358 292.381 193.338C292.882 189.23 292.391 185.061 290.949 181.182C289.507 177.302 287.156 173.825 284.093 171.041C281.022 168.299 277.347 166.322 273.367 165.27C273.562 164.991 273.773 164.724 273.992 164.461C275.529 164.892 277.025 165.458 278.462 166.153C283.601 168.62 287.808 172.675 290.461 177.719C292.843 182.299 293.868 187.463 293.416 192.605C293.645 192.397 293.875 192.184 294.099 191.973C298.348 188.012 302.122 183.466 304.676 178.219C306.892 173.776 307.981 168.856 307.848 163.892C307.639 158.48 305.483 153.467 302.36 149.103C298.937 144.448 294.894 140.282 290.343 136.721C285.756 133.048 280.737 129.95 275.397 127.496C275.276 127.439 275.182 127.339 275.134 127.215C275.085 127.092 275.086 126.954 275.136 126.831C275.172 126.721 275.25 126.629 275.353 126.575C275.406 126.552 275.463 126.542 275.521 126.544C275.578 126.547 275.635 126.562 275.686 126.589C276.345 126.893 277 127.2 277.649 127.521C283.058 130.194 288.115 133.529 292.701 137.448C297.132 141.225 301.303 145.54 304.42 150.481Z" fill="white"/>
<path d="M191.382 99.8242C192.037 99.5871 192.631 99.2095 193.123 98.718C193.615 98.2265 193.994 97.6331 194.232 96.9795C194.47 96.3259 194.562 95.628 194.501 94.9351C194.44 94.2421 194.228 93.571 193.88 92.9688L204.935 80.1727L196.22 79.0386L187.058 91.3639C186.085 92.016 185.385 93.0023 185.091 94.1359C184.797 95.2695 184.929 96.4716 185.462 97.5144C185.995 98.5573 186.892 99.3684 187.983 99.7941C189.074 100.22 190.284 100.231 191.382 99.8242Z" fill="#FFB8B8"/>
<path d="M253.696 102.528C254.155 102.005 254.493 101.388 254.687 100.72C254.882 100.052 254.927 99.3495 254.82 98.6621C254.714 97.9748 254.458 97.3191 254.07 96.7413C253.683 96.1636 253.173 95.6778 252.578 95.3182L256.092 78.7786L247.91 81.9861L245.827 97.2007C245.289 98.241 245.152 99.4425 245.441 100.577C245.73 101.712 246.425 102.702 247.395 103.359C248.365 104.015 249.542 104.293 250.703 104.14C251.865 103.987 252.929 103.414 253.696 102.528Z" fill="#FFB8B8"/>
<path d="M214.101 188.727L208.299 188.726L205.539 166.351L214.102 166.352L214.101 188.727Z" fill="#FFB8B8"/>
<path d="M215.58 194.35L196.871 194.349V194.113C196.871 193.157 197.059 192.21 197.425 191.327C197.791 190.443 198.328 189.641 199.004 188.965C199.68 188.289 200.483 187.752 201.366 187.386C202.25 187.021 203.197 186.832 204.153 186.832L215.58 186.833L215.58 194.35Z" fill="#2F2E41"/>
<path d="M242.496 188.727L236.694 188.726L233.934 166.351L242.497 166.352L242.496 188.727Z" fill="#FFB8B8"/>
<path d="M243.978 194.35L225.27 194.349V194.113C225.27 193.157 225.458 192.21 225.824 191.327C226.19 190.443 226.726 189.641 227.402 188.965C228.079 188.289 228.881 187.752 229.765 187.386C230.648 187.021 231.595 186.832 232.551 186.832L243.978 186.833L243.978 194.35Z" fill="#2F2E41"/>
<path d="M214.707 177.043L206.494 176.714C205.933 176.69 205.405 176.447 205.023 176.037C204.64 175.626 204.435 175.082 204.45 174.522L206.764 98.6353L206.915 98.5807C221.31 93.3745 233.219 93.7682 243.322 99.7826L243.435 99.8501L244.821 173.76C244.826 174.043 244.775 174.324 244.671 174.587C244.566 174.85 244.41 175.09 244.212 175.292C244.014 175.494 243.777 175.654 243.516 175.764C243.255 175.873 242.975 175.93 242.692 175.93H235.766C235.272 175.929 234.795 175.757 234.414 175.444C234.033 175.131 233.772 174.695 233.676 174.211L224.241 126.227C224.209 126.062 224.118 125.913 223.986 125.808C223.853 125.703 223.688 125.649 223.519 125.655C223.35 125.661 223.189 125.728 223.064 125.842C222.94 125.956 222.86 126.111 222.84 126.279L216.906 175.172C216.841 175.688 216.59 176.162 216.201 176.506C215.812 176.851 215.311 177.042 214.791 177.044C214.763 177.044 214.735 177.044 214.707 177.043Z" fill="#2F2E41"/>
<path d="M222.694 32.0849C229.114 32.0849 234.318 26.8818 234.318 20.4634C234.318 14.0449 229.114 8.8418 222.694 8.8418C216.275 8.8418 211.07 14.0449 211.07 20.4634C211.07 26.8818 216.275 32.0849 222.694 32.0849Z" fill="#FFB8B8"/>
<path d="M195.312 90.5869C194.908 90.4277 194.563 90.1495 194.322 89.7892L192.076 86.429C191.834 86.0646 191.709 85.6346 191.719 85.1971C191.729 84.7597 191.874 84.3359 192.132 83.983L201.187 71.6958L206.859 44.4833C207.186 43.6429 207.674 42.875 208.298 42.2235C208.921 41.572 209.666 41.0498 210.492 40.6866C211.317 40.3234 212.205 40.1264 213.107 40.1068C214.008 40.0873 214.905 40.2456 215.745 40.5727C216.585 40.8998 217.353 41.3893 218.004 42.0131C218.654 42.637 219.176 43.383 219.538 44.2085C219.9 45.034 220.096 45.9228 220.115 46.8241C220.133 47.7253 219.974 48.6214 219.646 49.4611L216.965 66.7798C216.152 72.0363 213.457 76.8186 209.381 80.2372L197.462 90.2373C197.233 90.4295 196.966 90.5713 196.678 90.6534C196.39 90.7356 196.088 90.7563 195.792 90.7142C195.628 90.6908 195.466 90.6481 195.312 90.5869Z" fill="#0CA781"/>
<path d="M253.199 91.8201C252.792 91.967 252.349 91.9861 251.93 91.8749L248.023 90.8363C247.6 90.7229 247.223 90.4824 246.941 90.1473C246.66 89.8123 246.488 89.3989 246.449 88.9631L245.125 73.7586L231.4 49.5849C231.089 48.7386 230.949 47.8395 230.986 46.939C231.024 46.0385 231.238 45.1541 231.618 44.3365C231.997 43.5189 232.534 42.7842 233.198 42.1741C233.862 41.5641 234.639 41.0909 235.486 40.7814C236.332 40.472 237.232 40.3324 238.133 40.3707C239.033 40.409 239.918 40.6243 240.735 41.0045C241.552 41.3846 242.287 41.9221 242.896 42.5862C243.506 43.2503 243.978 44.028 244.287 44.8748L253.72 59.6459C256.584 64.1285 257.721 69.4985 256.921 74.757L254.583 90.1371C254.537 90.4328 254.431 90.7157 254.269 90.9674C254.107 91.2191 253.894 91.434 253.644 91.598C253.505 91.6893 253.356 91.7639 253.199 91.8201Z" fill="#0CA781"/>
<path d="M209.981 41.102C211.978 38.913 214.441 37.2 217.188 36.0896C219.935 34.9791 222.896 34.4994 225.854 34.686C226.048 34.698 226.241 34.7116 226.434 34.7267C229.237 34.9482 231.961 35.7655 234.422 37.1239C236.884 38.4822 239.027 40.3503 240.708 42.6033C242.418 44.8878 243.62 47.5108 244.234 50.2969C244.848 53.0831 244.86 55.9683 244.269 58.7595C242.016 69.4267 242.586 80.4973 245.924 90.8765L249.042 100.557C249.142 100.867 249.17 101.196 249.123 101.519C249.075 101.841 248.955 102.148 248.77 102.417C248.585 102.685 248.341 102.908 248.057 103.067C247.772 103.226 247.455 103.318 247.13 103.336L231.188 104.192L227.108 97.1471V104.412L207.732 105.453C207.693 105.456 207.655 105.456 207.617 105.456C207.323 105.456 207.032 105.395 206.763 105.277C206.493 105.159 206.251 104.987 206.052 104.771C205.853 104.555 205.7 104.3 205.604 104.022C205.508 103.744 205.471 103.449 205.495 103.156L207.685 76.0048L204.938 57.5641C204.493 54.6177 204.715 51.6091 205.588 48.76C206.461 45.9109 207.963 43.2939 209.981 41.102Z" fill="#0CA781"/>
<path d="M230.775 31.558C229.699 32.1771 225.445 32.5876 225.142 31.3837L225.135 31.3573C224.924 30.4753 225.099 29.5542 225.16 28.6493C225.221 27.7444 225.132 26.7503 224.516 26.085C223.366 24.8448 221.322 25.5022 219.661 25.1886C218.687 24.9714 217.827 24.4071 217.239 23.6012C216.652 22.7954 216.379 21.8032 216.471 20.8104C216.494 20.6223 216.531 20.4341 216.573 20.2459C216.677 19.7691 216.669 19.2747 216.55 18.8015C216.43 18.3284 216.203 17.8893 215.885 17.5188C215.568 17.1483 215.168 16.8564 214.719 16.6661C214.269 16.4758 213.782 16.3923 213.295 16.422C211.616 16.518 209.803 17.0267 208.414 15.7832C207.339 14.8216 207.077 12.3185 207.549 10.9562C208.343 8.66688 213.424 7.46836 215.643 6.80951C218.387 6.01681 221.274 5.84543 224.092 6.30784C226.911 6.77025 229.591 7.85482 231.938 9.48271C233.339 10.4703 234.648 11.7113 235.245 13.3181C235.843 14.925 235.555 16.9522 234.208 18.0129C235.252 19.1181 235.987 20.4782 236.34 21.957C236.692 23.4357 236.65 24.9811 236.217 26.4384C235.552 28.5816 232.377 30.6364 230.775 31.558Z" fill="#2F2E41"/>
<path d="M125.89 65.7977H21.2975C21.172 65.7977 21.0516 65.7478 20.9628 65.6591C20.8741 65.5703 20.8242 65.45 20.8242 65.3245C20.8242 65.199 20.8741 65.0787 20.9628 64.9899C21.0516 64.9012 21.172 64.8513 21.2975 64.8513H125.89C126.015 64.8513 126.136 64.9012 126.224 64.9899C126.313 65.0787 126.363 65.199 126.363 65.3245C126.363 65.45 126.313 65.5703 126.224 65.6591C126.136 65.7478 126.015 65.7977 125.89 65.7977Z" fill="#E6E6E6"/>
<path d="M102.981 65.7977H43.5397C43.4142 65.7977 43.2938 65.7478 43.205 65.6591C43.1163 65.5703 43.0664 65.45 43.0664 65.3245C43.0664 65.199 43.1163 65.0787 43.205 64.9899C43.2938 64.9012 43.4142 64.8513 43.5397 64.8513H102.981C103.107 64.8513 103.227 64.9012 103.316 64.9899C103.405 65.0787 103.455 65.199 103.455 65.3245C103.455 65.45 103.405 65.5703 103.316 65.6591C103.227 65.7478 103.107 65.7977 102.981 65.7977Z" fill="#3F3D56"/>
<path d="M73.8287 65.7976C73.7032 65.7976 73.5828 65.7477 73.4941 65.659C73.4053 65.5703 73.3555 65.4499 73.3555 65.3244V35.5147C73.3555 35.3892 73.4053 35.2688 73.4941 35.1801C73.5828 35.0914 73.7032 35.0415 73.8287 35.0415C73.9543 35.0415 74.0746 35.0914 74.1634 35.1801C74.2522 35.2688 74.302 35.3892 74.302 35.5147V65.3244C74.302 65.4499 74.2521 65.5703 74.1634 65.659C74.0746 65.7477 73.9543 65.7976 73.8287 65.7976Z" fill="#3F3D56"/>
<path d="M103.645 65.7975C103.52 65.7975 103.399 65.7477 103.31 65.659C103.222 65.5702 103.172 65.4499 103.172 65.3244V5.70486C103.172 5.57937 103.222 5.45901 103.31 5.37028C103.399 5.28154 103.52 5.23169 103.645 5.23169C103.771 5.23169 103.891 5.28154 103.98 5.37028C104.069 5.45901 104.118 5.57937 104.118 5.70486V65.3244C104.118 65.4499 104.069 65.5702 103.98 65.659C103.891 65.7477 103.771 65.7975 103.645 65.7975Z" fill="#3F3D56"/>
<path d="M5.20595 10.9098C8.08111 10.9098 10.4119 8.57945 10.4119 5.70488C10.4119 2.8303 8.08111 0.5 5.20595 0.5C2.33078 0.5 0 2.8303 0 5.70488C0 8.57945 2.33078 10.9098 5.20595 10.9098Z" fill="#E6E6E6"/>
<path d="M5.20595 40.7196C8.08111 40.7196 10.4119 38.3893 10.4119 35.5147C10.4119 32.6401 8.08111 30.3098 5.20595 30.3098C2.33078 30.3098 0 32.6401 0 35.5147C0 38.3893 2.33078 40.7196 5.20595 40.7196Z" fill="#E6E6E6"/>
<path d="M5.20595 70.5294C8.08111 70.5294 10.4119 68.1991 10.4119 65.3245C10.4119 62.4499 8.08111 60.1196 5.20595 60.1196C2.33078 60.1196 0 62.4499 0 65.3245C0 68.1991 2.33078 70.5294 5.20595 70.5294Z" fill="#E6E6E6"/>
<path d="M125.89 6.17803H21.2975C21.172 6.17803 21.0516 6.12817 20.9628 6.03944C20.8741 5.9507 20.8242 5.83035 20.8242 5.70486C20.8242 5.57937 20.8741 5.45901 20.9628 5.37028C21.0516 5.28154 21.172 5.23169 21.2975 5.23169H125.89C126.015 5.23169 126.136 5.28154 126.224 5.37028C126.313 5.45901 126.363 5.57937 126.363 5.70486C126.363 5.83035 126.313 5.9507 126.224 6.03944C126.136 6.12817 126.015 6.17803 125.89 6.17803Z" fill="#E6E6E6"/>
<path d="M125.89 35.9878H21.2975C21.172 35.9878 21.0516 35.938 20.9628 35.8493C20.8741 35.7605 20.8242 35.6402 20.8242 35.5147C20.8242 35.3892 20.8741 35.2688 20.9628 35.1801C21.0516 35.0914 21.172 35.0415 21.2975 35.0415H125.89C126.015 35.0415 126.136 35.0914 126.224 35.1801C126.313 35.2688 126.363 35.3892 126.363 35.5147C126.363 35.6402 126.313 35.7605 126.224 35.8493C126.136 35.938 126.015 35.9878 125.89 35.9878Z" fill="#E6E6E6"/>
<path d="M43.7763 70.5294C46.6514 70.5294 48.9822 68.1991 48.9822 65.3245C48.9822 62.4499 46.6514 60.1196 43.7763 60.1196C40.9011 60.1196 38.5703 62.4499 38.5703 65.3245C38.5703 68.1991 40.9011 70.5294 43.7763 70.5294Z" fill="#0CA781"/>
<path d="M73.8309 40.7196C76.7061 40.7196 79.0369 38.3893 79.0369 35.5147C79.0369 32.6401 76.7061 30.3098 73.8309 30.3098C70.9558 30.3098 68.625 32.6401 68.625 35.5147C68.625 38.3893 70.9558 40.7196 73.8309 40.7196Z" fill="#0CA781"/>
<path d="M73.8309 70.5294C76.7061 70.5294 79.0369 68.1991 79.0369 65.3245C79.0369 62.4499 76.7061 60.1196 73.8309 60.1196C70.9558 60.1196 68.625 62.4499 68.625 65.3245C68.625 68.1991 70.9558 70.5294 73.8309 70.5294Z" fill="#0CA781"/>
<path d="M103.647 10.9098C106.523 10.9098 108.853 8.57945 108.853 5.70488C108.853 2.8303 106.523 0.5 103.647 0.5C100.772 0.5 98.4414 2.8303 98.4414 5.70488C98.4414 8.57945 100.772 10.9098 103.647 10.9098Z" fill="#0CA781"/>
<path d="M103.647 40.7196C106.523 40.7196 108.853 38.3893 108.853 35.5147C108.853 32.6401 106.523 30.3098 103.647 30.3098C100.772 30.3098 98.4414 32.6401 98.4414 35.5147C98.4414 38.3893 100.772 40.7196 103.647 40.7196Z" fill="#0CA781"/>
<path d="M103.647 70.5294C106.523 70.5294 108.853 68.1991 108.853 65.3245C108.853 62.4499 106.523 60.1196 103.647 60.1196C100.772 60.1196 98.4414 62.4499 98.4414 65.3245C98.4414 68.1991 100.772 70.5294 103.647 70.5294Z" fill="#0CA781"/>
<path d="M329.527 194.5H121.762C121.637 194.5 121.516 194.45 121.428 194.361C121.339 194.273 121.289 194.152 121.289 194.027C121.289 193.901 121.339 193.781 121.428 193.692C121.516 193.604 121.637 193.554 121.762 193.554H329.527C329.652 193.554 329.773 193.604 329.862 193.692C329.95 193.781 330 193.901 330 194.027C330 194.152 329.95 194.273 329.862 194.361C329.773 194.45 329.652 194.5 329.527 194.5Z" fill="#3F3D56"/>
<path d="M153.814 152.413C153.5 152.396 153.184 152.388 152.867 152.388C148.097 152.388 143.523 154.282 140.15 157.654C136.778 161.026 134.883 165.599 134.883 170.368H153.814V152.413Z" fill="#0CA781"/>
<path d="M157.598 194.5C152.705 194.494 148.013 192.548 144.553 189.089C141.093 185.629 139.146 180.939 139.141 176.046C139.141 175.921 139.19 175.8 139.279 175.712C139.368 175.623 139.488 175.573 139.614 175.573H158.071V158.091C158.071 158.027 158.084 157.963 158.11 157.904C158.135 157.845 158.172 157.792 158.219 157.748C158.265 157.703 158.32 157.668 158.38 157.646C158.441 157.624 158.505 157.614 158.569 157.618C163.374 157.871 167.889 159.99 171.154 163.523C174.419 167.056 176.176 171.723 176.049 176.532C175.923 181.34 173.923 185.909 170.477 189.266C167.03 192.622 162.409 194.5 157.598 194.5ZM140.094 176.519C140.185 179.9 141.254 183.182 143.171 185.968C145.088 188.755 147.772 190.926 150.897 192.22C154.022 193.515 157.455 193.876 160.782 193.261C164.108 192.646 167.185 191.082 169.641 188.756C172.096 186.43 173.826 183.443 174.62 180.155C175.414 176.868 175.238 173.421 174.115 170.231C172.991 167.041 170.968 164.244 168.288 162.18C165.609 160.115 162.389 158.87 159.018 158.596V176.046C159.018 176.172 158.968 176.292 158.879 176.381C158.79 176.47 158.67 176.519 158.545 176.519H140.094Z" fill="#3F3D56"/>
</g>
<defs>
<clipPath id="clip0_133_1481">
<rect width="330" height="194" fill="white" transform="translate(0 0.5)"/>
</clipPath>
</defs>
</svg>
