<svg width="330" height="309" viewBox="0 0 330 309" fill="none" xmlns="http://www.w3.org/2000/svg">
<g clip-path="url(#clip0_133_1331)">
<path d="M329.562 301.27H0.438241C0.196097 301.27 0 300.95 0 300.554C0 300.159 0.196097 299.838 0.438241 299.838H329.562C329.804 299.838 330 300.159 330 300.554C330 300.95 329.803 301.27 329.562 301.27Z" fill="#CACACA"/>
<path d="M44.3641 207.402C47.0181 207.402 49.1695 205.25 49.1695 202.596C49.1695 199.942 47.0181 197.791 44.3641 197.791C41.7101 197.791 39.5586 199.942 39.5586 202.596C39.5586 205.25 41.7101 207.402 44.3641 207.402Z" fill="#0CA781"/>
<path d="M65.4344 241.659C68.0884 241.659 70.2398 239.507 70.2398 236.853C70.2398 234.199 68.0884 232.047 65.4344 232.047C62.7804 232.047 60.6289 234.199 60.6289 236.853C60.6289 239.507 62.7804 241.659 65.4344 241.659Z" fill="#0CA781"/>
<path d="M49.1688 236.974C51.8227 236.974 53.9742 234.823 53.9742 232.169C53.9742 229.515 51.8227 227.363 49.1688 227.363C46.5148 227.363 44.3633 229.515 44.3633 232.169C44.3633 234.823 46.5148 236.974 49.1688 236.974Z" fill="#0CA781"/>
<path d="M50.702 300.378C50.6173 300.239 48.6168 296.899 47.9237 289.964C47.2877 283.601 47.6968 272.876 53.2587 257.916C63.7954 229.574 50.8302 206.706 50.6979 206.478L51.3376 206.108C51.3713 206.166 54.7165 211.997 56.6931 221.279C59.3044 233.588 58.3534 246.386 53.9518 258.173C43.4331 286.466 51.2533 299.861 51.3334 299.992L50.702 300.378Z" fill="#CFCCE0"/>
<path d="M46.5813 205.184C45.5578 205.184 44.5572 204.88 43.7062 204.312C42.8552 203.743 42.1919 202.935 41.8002 201.989C41.4085 201.043 41.306 200.003 41.5057 198.999C41.7054 197.995 42.1982 197.073 42.922 196.349C43.6457 195.625 44.5679 195.132 45.5717 194.933C46.5756 194.733 47.6161 194.835 48.5617 195.227C49.5073 195.619 50.3156 196.282 50.8842 197.133C51.4529 197.984 51.7564 198.985 51.7564 200.009C51.7564 201.381 51.2111 202.697 50.2406 203.668C49.2701 204.639 47.9538 205.184 46.5813 205.184ZM46.5813 195.573C45.7041 195.573 44.8465 195.833 44.1171 196.32C43.3877 196.808 42.8192 197.501 42.4835 198.311C42.1478 199.122 42.0599 200.013 42.2311 200.874C42.4022 201.734 42.8247 202.525 43.445 203.145C44.0653 203.765 44.8556 204.188 45.716 204.359C46.5764 204.53 47.4682 204.442 48.2787 204.107C49.0892 203.771 49.7819 203.202 50.2693 202.473C50.7566 201.743 51.0168 200.886 51.0168 200.009C51.0168 198.832 50.5495 197.704 49.7177 196.872C48.8858 196.04 47.7577 195.573 46.5813 195.573Z" fill="#CFCCE0"/>
<path d="M61.7352 222.558C64.3891 222.558 66.5406 220.407 66.5406 217.752C66.5406 215.098 64.3891 212.947 61.7352 212.947C59.0812 212.947 56.9297 215.098 56.9297 217.752C56.9297 220.407 59.0812 222.558 61.7352 222.558Z" fill="#CFCCE0"/>
<path d="M51.386 234.755C50.3625 234.755 49.3619 234.452 48.5109 233.883C47.6599 233.314 46.9966 232.506 46.6049 231.56C46.2132 230.615 46.1107 229.574 46.3104 228.57C46.5101 227.566 47.0029 226.644 47.7267 225.92C48.4504 225.197 49.3725 224.704 50.3764 224.504C51.3803 224.304 52.4208 224.407 53.3664 224.798C54.312 225.19 55.1203 225.854 55.6889 226.705C56.2576 227.556 56.5611 228.556 56.5611 229.58C56.5611 230.952 56.0158 232.269 55.0453 233.239C54.0748 234.21 52.7585 234.755 51.386 234.755ZM51.386 225.144C50.5088 225.144 49.6513 225.404 48.9219 225.892C48.1925 226.379 47.6241 227.072 47.2885 227.883C46.9528 228.693 46.865 229.585 47.0362 230.445C47.2074 231.306 47.6299 232.096 48.2502 232.716C48.8705 233.337 49.6609 233.759 50.5212 233.93C51.3816 234.101 52.2734 234.014 53.0839 233.678C53.8943 233.342 54.587 232.774 55.0744 232.044C55.5618 231.315 55.8219 230.457 55.8219 229.58C55.8219 228.997 55.7071 228.42 55.4842 227.882C55.2613 227.344 54.9345 226.855 54.5226 226.443C54.1107 226.031 53.6217 225.705 53.0835 225.482C52.5453 225.259 51.9685 225.144 51.386 225.144Z" fill="#CFCCE0"/>
<path d="M63.9524 239.44C62.9289 239.44 61.9283 239.137 61.0773 238.568C60.2263 237.999 59.563 237.191 59.1713 236.245C58.7796 235.3 58.6771 234.259 58.8768 233.255C59.0765 232.251 59.5693 231.329 60.2931 230.605C61.0168 229.882 61.9389 229.389 62.9428 229.189C63.9467 228.989 64.9872 229.092 65.9328 229.484C66.8784 229.875 67.6867 230.539 68.2553 231.39C68.8239 232.241 69.1275 233.241 69.1275 234.265C69.1275 234.945 68.9936 235.617 68.7335 236.245C68.4735 236.873 68.0923 237.444 67.6117 237.924C67.1312 238.405 66.5607 238.786 65.9328 239.046C65.3049 239.306 64.632 239.44 63.9524 239.44ZM63.9524 229.829C63.0752 229.829 62.2176 230.089 61.4882 230.577C60.7588 231.064 60.1903 231.757 59.8546 232.567C59.5189 233.378 59.431 234.27 59.6022 235.13C59.7733 235.991 60.1957 236.781 60.8161 237.401C61.4364 238.022 62.2267 238.444 63.0871 238.615C63.9475 238.786 64.8393 238.699 65.6498 238.363C66.4603 238.027 67.153 237.459 67.6404 236.729C68.1277 236 68.3879 235.142 68.3879 234.265C68.3879 233.088 67.9206 231.96 67.0888 231.128C66.257 230.296 65.1288 229.829 63.9524 229.829Z" fill="#CFCCE0"/>
<path d="M47.6883 259.893C50.3423 259.893 52.4938 257.741 52.4938 255.087C52.4938 252.433 50.3423 250.281 47.6883 250.281C45.0343 250.281 42.8828 252.433 42.8828 255.087C42.8828 257.741 45.0343 259.893 47.6883 259.893Z" fill="#CFCCE0"/>
<path d="M53.6048 300.555C53.6048 300.555 48.7994 288.726 63.2154 279.854L53.6048 300.555Z" fill="#CFCCE0"/>
<path d="M47.6954 300.34C47.6954 300.34 45.5083 287.76 28.582 287.869L47.6954 300.34Z" fill="#CFCCE0"/>
<path d="M298.724 299.582H241.925C241.925 299.582 240.774 282.694 247.586 282.503C254.397 282.311 253.629 289.985 262.169 279.432C270.71 268.88 281.071 269.454 282.414 275.691C283.757 281.928 279.824 286.917 287.018 285.382C294.212 283.847 304.577 287.876 298.724 299.582Z" fill="#D6D6E3"/>
<path d="M269.363 299.585L269.172 299.578C269.619 288.46 271.947 281.316 273.822 277.281C275.857 272.9 277.819 271.126 277.838 271.109L277.966 271.252C277.946 271.269 276.008 273.025 273.989 277.378C272.124 281.395 269.809 288.51 269.363 299.585Z" fill="#F2F2F2"/>
<path d="M289.922 299.609L289.738 299.556C291.167 294.844 293.742 290.56 297.232 287.087L297.362 287.229C293.897 290.677 291.341 294.931 289.922 299.609Z" fill="#F2F2F2"/>
<path d="M203.073 299.328L202.674 299.272C204.254 287.878 201.4 279.038 198.727 273.629C195.834 267.772 192.533 264.573 192.5 264.543L192.779 264.252C192.812 264.284 196.165 267.533 199.089 273.452C201.787 278.911 204.667 287.832 203.073 299.328Z" fill="#F2F2F2"/>
<path d="M306.433 299.839H235.799L235.782 299.6C235.741 299.004 234.841 284.963 239.39 279.954C239.841 279.424 240.398 278.996 241.025 278.695C241.653 278.394 242.336 278.227 243.031 278.206C245.996 278.122 247.86 279.234 249.362 280.124C252.195 281.805 254.067 282.916 260.873 274.505C268.245 265.393 276.199 263.433 280.771 264.523C283.725 265.227 285.761 267.218 286.357 269.985C286.922 272.605 286.742 275.067 286.597 277.045C286.443 279.161 286.321 280.833 287.19 281.59C287.915 282.223 289.364 282.28 291.747 281.771C296.596 280.737 303.361 281.622 306.756 286.01C308.583 288.37 310.023 292.661 306.505 299.697L306.433 299.839ZM236.281 299.325H306.115C308.736 294.007 308.819 289.513 306.35 286.324C303.235 282.299 296.699 281.239 291.854 282.273C289.264 282.826 287.721 282.735 286.852 281.977C285.789 281.051 285.919 279.267 286.084 277.007C286.226 275.062 286.403 272.641 285.854 270.093C285.302 267.527 283.405 265.679 280.651 265.022C276.225 263.966 268.493 265.902 261.272 274.827C254.188 283.584 252.054 282.317 249.103 280.566C247.582 279.661 245.855 278.64 243.047 278.72C242.421 278.74 241.806 278.89 241.242 279.162C240.678 279.434 240.177 279.821 239.771 280.299C235.682 284.801 236.18 297.427 236.281 299.325Z" fill="#CFCCE0"/>
<path d="M168.521 42.7895C168.521 42.7895 160.198 39.8166 154.847 51.7085C149.496 63.6004 141.172 76.6809 141.172 76.6809L145.928 77.8699C145.928 77.8699 147.117 69.5458 150.09 68.3564L148.902 79.0589C148.902 79.0589 179.492 91.5453 195.545 77.8699L197.329 73.6098V77.8699L201.491 75.9882C201.491 75.9882 199.707 72.4208 194.356 67.664C191.252 64.8819 189.312 61.031 188.923 56.8805C188.612 53.7795 187.372 50.8449 185.364 48.4614C181.807 44.3403 178.332 38.066 168.521 42.7895Z" fill="#090814"/>
<path d="M159.742 89.4143L151.12 78.637L144.654 56.5437L169.441 30.1398C169.441 30.1398 174.83 9.66309 169.98 10.7411C165.131 11.819 164.053 26.9067 164.053 26.9067L132.801 51.1555C132.801 51.1555 136.034 85.1036 145.194 96.9585L152.199 119.052L159.742 89.4143Z" fill="#FFB9B9"/>
<path d="M183.452 89.4143L192.074 78.637L198.54 56.5437L173.754 30.1398C173.754 30.1398 168.366 9.66309 173.215 10.7411C178.065 11.819 179.142 26.9067 179.142 26.9067L210.395 51.1555C210.395 51.1555 207.162 85.1036 198.002 96.9585L190.997 119.052L183.452 89.4143Z" fill="#FFB9B9"/>
<path d="M172.002 78.975C179.139 78.975 184.925 73.1886 184.925 66.0507C184.925 58.9128 179.139 53.1265 172.002 53.1265C164.864 53.1265 159.078 58.9128 159.078 66.0507C159.078 73.1886 164.864 78.975 172.002 78.975Z" fill="#FFB9B9"/>
<path d="M165.129 73.7874C165.129 73.7874 165.668 85.1033 162.435 88.8758C159.202 92.6483 155.969 112.047 171.595 112.586C187.222 113.125 185.605 96.42 185.605 96.42L182.372 87.2592C182.372 87.2592 177.521 80.254 179.139 73.7878L165.129 73.7874Z" fill="#FFB9B9"/>
<path d="M150.581 199.341L162.166 202.844C162.166 202.844 171.596 197.186 171.596 202.574C171.596 207.963 168.363 214.968 169.441 219.818C170.518 224.668 172.674 236.523 169.441 236.523C166.208 236.523 159.742 215.507 159.742 215.507L148.965 209.58L150.581 199.341Z" fill="#FFB9B9"/>
<path d="M165.132 274.782L160.821 291.485C160.821 291.485 157.049 296.337 160.821 298.491C162.591 299.502 163.886 301.582 164.763 303.504C165.527 305.235 166.805 306.689 168.424 307.669C170.043 308.648 171.924 309.105 173.812 308.979C175.651 308.826 177.2 308.099 177.577 306.209C177.682 305.616 177.661 305.008 177.518 304.423C177.374 303.839 177.11 303.29 176.743 302.813C172.768 297.442 171.867 293.91 171.867 293.91L173.484 275.05L165.132 274.782Z" fill="#FFB9B9"/>
<path d="M154.696 68.7316C154.696 68.7316 160.052 58.1702 164.213 56.9808C168.375 55.7914 169.816 56.9808 169.816 56.9808C169.816 56.9808 179.073 61.7375 185.614 62.332C192.154 62.9265 186.208 52.083 186.208 52.083L174.317 49.1101L163.02 50.2991L154.102 56.2448L154.696 68.7316Z" fill="#090814"/>
<path d="M145.731 158.388L143.576 162.699C143.576 162.699 91.309 179.404 95.6199 195.029C99.9308 210.654 124.178 206.344 124.178 206.344L151.12 211.196L153.814 199.341L134.955 194.49L167.285 182.635L168.362 237.598L164.052 276.935L174.829 278.012C174.829 278.012 186.683 241.909 185.065 226.821C185.065 226.821 205.004 165.391 193.687 156.23C182.369 147.069 145.731 158.388 145.731 158.388Z" fill="#090814"/>
<path d="M172.23 96.4266L163.821 86.2652L158.127 88.8754L152.2 107.737C152.2 107.737 147.349 116.898 153.277 126.597C153.277 126.597 154.355 133.063 152.739 134.68C151.122 136.296 150.583 146.535 150.583 146.535L143.578 160.006C143.578 160.006 183.452 167.011 195.306 157.312C195.306 157.312 189.086 134.378 192.858 127.372C196.629 120.367 197.168 109.628 192.858 104.778C188.547 99.9286 183.991 87.2605 183.991 87.2605L181.381 85.5913L172.23 96.4266Z" fill="#0CA781"/>
<path d="M203.661 15.974H198.493V10.8057H198.023V15.974H192.855V16.4435H198.023V21.6118H198.493V16.4435H203.661V15.974Z" fill="#CFCCE0"/>
<path d="M154.547 5.1683H149.379V0H148.909V5.1683H143.742V5.63781H148.91V10.8057H149.379V5.63781H154.547L154.547 5.1683Z" fill="#CFCCE0"/>
</g>
<defs>
<clipPath id="clip0_133_1331">
<rect width="330" height="309" fill="white"/>
</clipPath>
</defs>
</svg>
