<svg width="218" height="32" viewBox="0 0 218 32" fill="none" xmlns="http://www.w3.org/2000/svg">
<g clip-path="url(#clip0_48_632)">
<path d="M216.018 10.9232C214.289 10.1939 212.841 9.04794 202.804 8.081C199.371 7.76491 195.943 7.40525 192.51 7.11081C166.91 5.47647 164.706 5.72803 145.879 5.52199C135.803 5.56288 125.733 6.12997 115.669 6.57989C108.578 6.99283 101.501 7.6617 94.4203 8.22547C56.3443 12.1221 69.5763 10.4751 43.1143 14.307C31.7427 16.4618 20.4117 18.8335 9.05372 21.061C7.36715 21.5107 5.64909 21.8685 3.99089 22.4088C2.15649 23.0131 2.08533 22.9972 1.83315 23.2432C0.668515 24.1475 1.5551 26.1655 3.31113 25.6785C8.39698 24.0047 8.1448 24.1498 30.1273 19.778C30.8139 20.3828 31.2651 20.1968 32.955 20.0557C34.9578 19.8884 36.9615 19.737 38.9604 19.531C47.0634 18.4913 55.1278 17.1655 63.2218 16.0514C66.0097 15.6952 68.7901 15.2646 71.5756 14.8682C75.0946 14.488 78.6153 14.1121 82.1363 13.7391C100.406 12.3227 95.1032 12.5034 117.801 11.3631C121.371 11.29 118.039 11.3228 136.977 11.1989C151.744 11.587 167.77 13.3676 182.296 15.1118C188.579 15.873 200.238 17.3738 206.383 18.9613C206.971 19.0772 207.64 18.8464 207.95 18.3501C208.4 17.7862 208.27 16.9314 207.717 16.47C207.196 16.0514 206.45 16.0504 205.821 15.8518C203.05 15.1754 198.997 14.5203 195.996 14.0569L200.002 14.2878C203.53 14.5261 207.073 14.4258 210.604 14.6205C212.254 14.6592 214.486 14.6469 215.787 13.6738C216.117 13.4316 216.502 13.2338 216.686 12.8592C217.065 12.174 216.761 11.259 216.021 10.9259L216.018 10.9232ZM141.566 8.44302C147.301 8.29816 165.074 8.58669 171.594 8.78243C178.629 9.15193 185.662 9.52297 192.69 9.98663C196.419 10.4493 204.059 10.9163 208.314 11.6588C206.5 11.6026 204.683 11.5941 202.867 11.5467C182.436 10.4884 162.013 9.25361 141.566 8.44302Z" fill="#CDA42A"/>
</g>
<defs>
<clipPath id="clip0_48_632">
<rect width="216" height="18" fill="white" transform="translate(0.652344 13.5354) rotate(-3.46052)"/>
</clipPath>
</defs>
</svg>
