<svg width="2536" height="1272" viewBox="0 0 2536 1272" fill="none" xmlns="http://www.w3.org/2000/svg">
<path d="M1265.15 0.395782H1270.46V32.2968H1265.15V0.395782Z" fill="#AD844B"/>
<path d="M1265.15 125.234V164.359H1270.46V125.234H1265.15ZM1265.15 71.4739V110.542H1270.46V71.4739H1265.15Z" fill="#AD844B"/>
<path d="M1265.15 183.943V242.651H1270.46V183.943H1265.15ZM1265.15 281.724V320.896H1270.46V281.724H1265.15ZM1265.15 335.536V374.661H1270.46V335.536H1265.15ZM1265.15 394.245V452.953H1270.46V394.245H1265.15ZM1265.15 492.026V531.151H1270.46V492.026H1265.15ZM1265.15 545.839V584.964H1270.46V545.839H1265.15ZM1265.15 604.547V663.255H1270.46V604.547H1265.15ZM1265.15 702.328V741.453H1270.46V702.328H1265.15ZM1265.15 756.141V786.911H1270.46V756.141H1265.15Z" fill="#AD844B"/>
<path d="M2319.14 657.328L2285.22 676.917L2287.95 681.505L2321.87 661.917L2319.14 657.328ZM2272.59 684.188L2238.68 703.771L2241.31 708.411L2275.22 688.823L2272.59 684.188ZM2204.81 723.307L2153.99 752.74L2156.62 757.276L2207.44 728L2204.81 723.359V723.307ZM2137.03 762.432L2103.12 782.016L2105.75 786.604L2139.66 767.016L2137.03 762.432ZM2090.39 789.286L2056.57 808.922L2059.2 813.458L2093.12 793.922L2090.39 789.286ZM2022.66 828.406L1971.83 857.734L1974.46 862.375L2025.33 832.943L2022.6 828.354L2022.66 828.406ZM1954.92 867.531L1921.01 887.115L1923.64 891.703L1957.55 872.167L1954.92 867.531ZM1908.28 894.49L1874.36 914.021L1876.99 918.661L1910.91 899.021L1908.28 894.49ZM1840.5 933.557L1789.67 962.885L1792.3 967.474L1843.13 938.198L1840.5 933.557ZM1772.71 972.682L1738.8 992.266L1741.53 996.854L1775.34 977.266L1772.71 972.682ZM1726.17 999.536L1697.1 1016.34L1692.3 1019.12L1694.93 1023.71L1699.73 1020.93L1728.8 1004.17L1726.17 999.536Z" fill="#AD844B"/>
<path d="M2336.1 647.745L2363.73 631.797L2366.39 636.396L2338.75 652.344L2336.1 647.745Z" fill="#AD844B"/>
<mask id="mask0_78_114" style="mask-type:luminance" maskUnits="userSpaceOnUse" x="2502" y="1265" width="34" height="7">
<path d="M2502.67 1265.33H2535.01V1271.87H2502.67V1265.33Z" fill="white"/>
</mask>
<g mask="url(#mask0_78_114)">
<path d="M2502.89 1265.66H2534.8V1270.97H2502.89V1265.66Z" fill="#AD844B"/>
</g>
<mask id="mask1_78_114" style="mask-type:luminance" maskUnits="userSpaceOnUse" x="2370" y="1265" width="94" height="7">
<path d="M2370.67 1265.33H2464V1271.87H2370.67V1265.33Z" fill="white"/>
</mask>
<g mask="url(#mask1_78_114)">
<path d="M2370.84 1265.66V1270.97H2409.96V1265.66H2370.84ZM2424.65 1265.66V1270.97H2463.77V1265.66H2424.65Z" fill="#AD844B"/>
</g>
<mask id="mask2_78_114" style="mask-type:luminance" maskUnits="userSpaceOnUse" x="1748" y="1265" width="604" height="7">
<path d="M1748 1265.33H2352V1271.87H1748V1265.33Z" fill="white"/>
</mask>
<g mask="url(#mask2_78_114)">
<path d="M1748.33 1265.66C1748.39 1266.48 1748.49 1267.36 1748.49 1268.19V1268.29C1748.59 1269.17 1748.59 1270.04 1748.59 1270.92H1779V1265.61H1748.28L1748.33 1265.66ZM1793.74 1265.66V1270.97H1832.86V1265.66H1793.74ZM1872.04 1265.66V1270.97H1930.7V1265.66H1872.04ZM1950.29 1265.66V1270.97H1989.41V1265.66H1950.29ZM2004.1 1265.66V1270.97H2043.22V1265.66H2004.1ZM2082.34 1265.66V1270.97H2141.05V1265.66H2082.34ZM2160.64 1265.66V1270.97H2199.76V1265.66H2160.64ZM2214.4 1265.66V1270.97H2253.57V1265.66H2214.4ZM2292.7 1265.66V1270.97H2351.46V1265.66H2292.7Z" fill="#AD844B"/>
</g>
<path d="M1883.01 196.12L1898.97 168.495L1903.57 171.151L1887.6 198.776L1883.01 196.12Z" fill="#AD844B"/>
<path d="M1863.54 230.078L1843.95 263.995L1848.54 266.62L1868.13 232.703L1863.54 230.078ZM1836.58 276.724L1816.99 310.641L1821.63 313.271L1841.22 279.354L1836.58 276.724Z" fill="#AD844B"/>
<path d="M1807.3 327.495L1777.97 378.266L1782.56 381L1811.89 330.177L1807.3 327.547V327.495ZM1758.39 412.13L1738.8 446.047L1743.39 448.677L1762.97 414.865L1758.39 412.13ZM1731.53 458.781L1711.94 492.698L1716.48 495.323L1736.12 461.406L1731.53 458.781ZM1702.2 509.656L1672.87 560.479L1677.46 563.104L1706.79 512.281L1702.2 509.656ZM1653.29 594.344L1633.7 628.26L1638.29 630.885L1657.88 596.974L1653.29 594.344ZM1626.43 640.885L1606.79 674.802L1611.43 677.432L1631.02 643.516L1626.43 640.885ZM1597 691.708L1567.72 742.531L1572.31 745.161L1601.64 694.339L1597 691.708ZM1548.14 776.396L1528.55 810.312L1533.14 812.943L1552.72 779.026L1548.14 776.396ZM1521.18 823.047L1514.06 835.365C1515.61 836.292 1517.21 837.172 1518.7 838.099L1525.81 825.729L1521.18 823.099V823.047Z" fill="#AD844B"/>
<path d="M631.318 171.24L635.917 168.583L651.87 196.214L647.271 198.87L631.318 171.24Z" fill="#AD844B"/>
<path d="M671.464 230.078L666.875 232.703L686.411 266.62L691.047 263.995L671.464 230.078ZM698.318 276.724L693.729 279.354L713.318 313.271L717.906 310.641L698.318 276.724Z" fill="#AD844B"/>
<path d="M727.698 327.495L723.109 330.125L752.385 380.948L757.026 378.214L727.698 327.443V327.495ZM776.615 412.13L771.974 414.865L791.615 448.677L796.198 446.047L776.615 412.13ZM803.469 458.781L798.88 461.406L818.469 495.323L823.057 492.698L803.469 458.781ZM832.797 509.656L828.156 512.281L857.589 563.104L862.177 560.479L832.849 509.656H832.797ZM881.661 594.344L877.125 596.974L896.661 630.885L901.302 628.26L881.661 594.344ZM908.62 640.885L904.031 643.516L923.62 677.432L928.208 674.802L908.62 640.885ZM937.948 691.708L933.359 694.339L962.688 745.161L967.276 742.531L937.948 691.708ZM986.865 776.396L982.224 779.026L1001.81 812.943L1006.45 810.312L986.865 776.396ZM1020.89 835.365L1013.77 823.047L1009.18 825.677L1016.3 838.047L1024.65 852.531C1024.65 852.531 1025.11 852.167 1025.32 852.12C1025.47 852.068 1025.73 851.964 1025.83 851.807L1029.23 849.849L1020.89 835.312V835.365Z" fill="#AD844B"/>
<path d="M166.9 636.167L169.557 631.568L197.187 647.521L194.531 652.12L166.9 636.167Z" fill="#AD844B"/>
<path d="M231.115 667.125L228.49 671.714L262.402 691.297L265.032 686.708L231.115 667.125ZM277.662 693.979L275.032 698.62L308.949 718.203L311.579 713.568L277.662 693.979Z" fill="#AD844B"/>
<path d="M328.536 723.359L325.906 727.948L376.729 757.276L379.359 752.688L328.536 723.359ZM413.224 772.276L410.594 776.865L444.406 796.5L447.141 791.859L413.224 772.276ZM459.766 799.234L457.141 803.771L491.057 823.354L493.682 818.818L459.766 799.234ZM510.589 828.51L507.964 833.099L558.839 862.531L561.464 857.891L510.589 828.562V828.51ZM595.328 877.427L592.703 882.016L626.62 901.599L629.245 897.01L595.328 877.427ZM641.875 904.281L639.245 908.87L673.161 928.505L675.792 923.87L641.875 904.281ZM692.75 933.609L690.016 938.25L740.839 967.526L743.573 962.938L692.75 933.609ZM777.385 982.526L774.755 987.115L808.672 1006.7L811.302 1002.11L777.385 982.526ZM837.385 1017.11L823.984 1009.38L821.354 1014.02L834.651 1021.75L849.135 1030.05C849.964 1028.51 850.891 1027.01 851.766 1025.46L837.333 1017.11H837.385Z" fill="#AD844B"/>
<mask id="mask3_78_114" style="mask-type:luminance" maskUnits="userSpaceOnUse" x="0" y="1264" width="34" height="7">
<path d="M0.146484 1264H33.334V1270.67H0.146484V1264Z" fill="white"/>
</mask>
<g mask="url(#mask3_78_114)">
<path d="M0.146484 1264.73H32.0527V1270.04H0.146484V1264.73Z" fill="#AD844B"/>
</g>
<path d="M71.1719 1264.73V1270.04H110.297V1264.73H71.1719ZM124.984 1264.73V1270.04H164.109V1264.73H124.984Z" fill="#AD844B"/>
<path d="M183.641 1264.73V1270.04H242.406V1264.73H183.641ZM281.474 1264.73V1270.04H320.547V1264.73H281.474ZM335.234 1264.73V1270.04H374.411V1264.73H335.234ZM393.948 1264.73V1270.04H452.656V1264.73H393.948ZM491.776 1264.73V1270.04H530.901V1264.73H491.776ZM545.536 1264.73V1270.04H584.714V1264.73H545.536ZM604.297 1264.73V1270.04H662.958V1264.73H604.297ZM702.078 1264.73V1270.04H741.203V1264.73H702.078ZM755.839 1264.73V1270.04H794.964V1264.73H755.839Z" fill="#AD844B"/>
<path d="M2282.23 1020.87L2242.7 1030.46L2243.89 1035.56L2283.57 1026.08L2282.29 1020.82L2282.23 1020.87ZM2227.8 1034.02L2188.11 1043.55L2189.4 1048.76L2228.94 1039.22L2227.75 1034.02H2227.8ZM2148.58 1053.14L2089.15 1067.47L2090.39 1072.68L2149.81 1058.35L2148.58 1053.14ZM2069.35 1072.16L2029.77 1081.75L2031.01 1086.85L2070.69 1077.37L2069.41 1072.11L2069.35 1072.16ZM2014.87 1085.31L1975.29 1094.84L1976.52 1100.05L2016.11 1090.51L2014.87 1085.31ZM1935.7 1104.43L1876.27 1118.76L1877.45 1123.96L1936.89 1109.64L1935.7 1104.43ZM1856.47 1123.45L1816.79 1133.04L1818.07 1138.14L1857.66 1128.66L1856.42 1123.4L1856.47 1123.45ZM1801.99 1136.59L1762.41 1146.13L1763.64 1151.33L1803.23 1141.8L1801.99 1136.59Z" fill="#AD844B"/>
<path d="M2302.12 1016.09L2333.14 1008.62L2334.38 1013.78L2303.36 1021.26L2302.12 1016.09Z" fill="#AD844B"/>
<path d="M230.297 1006.98L231.604 1001.83L262.526 1009.71L261.214 1014.86L230.297 1006.98Z" fill="#AD844B"/>
<path d="M301.99 1019.69L300.703 1024.74L340.13 1034.84L341.474 1029.74L301.99 1019.74V1019.69ZM356.266 1033.51L354.927 1038.6L394.411 1048.71L395.75 1043.6L356.266 1033.51Z" fill="#AD844B"/>
<path d="M415.49 1048.6L414.203 1053.71L473.375 1068.86L474.714 1063.66L415.49 1048.55V1048.6ZM514.198 1073.76L512.859 1078.86L552.344 1088.96L553.63 1083.76L514.198 1073.76ZM568.422 1087.57L567.188 1092.78L606.62 1102.78L607.906 1097.68L568.422 1087.57ZM627.651 1102.68L626.359 1107.78L685.583 1122.93L686.823 1117.73L627.651 1102.63V1102.68ZM726.307 1127.83L725.016 1132.93L764.5 1143.04L765.839 1137.83L726.307 1127.83ZM785.583 1142.93L780.635 1141.65L779.292 1146.85L784.292 1148.09L800.427 1152.21C800.839 1150.51 801.25 1148.81 801.714 1147.01L785.583 1142.93Z" fill="#AD844B"/>
<path d="M2036.88 541.406L2007.24 569.292L2010.85 573.156L2040.54 545.271L2036.88 541.406ZM1996.06 579.703L1966.42 607.589L1970.08 611.453L1999.77 583.568L1996.06 579.703ZM1936.68 635.526L1892.19 677.38L1895.85 681.198L1940.34 639.339L1936.68 635.526ZM1877.3 691.297L1847.61 719.234L1851.27 723.099L1880.96 695.161L1877.3 691.297ZM1836.53 729.646L1806.84 757.583L1810.49 761.448L1840.19 733.516L1836.53 729.646ZM1777.09 785.469L1732.61 827.323L1736.22 831.141L1780.81 789.286L1777.15 785.469H1777.09ZM1717.71 841.24L1688.03 869.125L1691.69 872.995L1721.32 845.109L1717.71 841.24ZM1676.94 879.589L1647.2 907.474L1650.91 911.344L1680.55 883.458L1676.94 879.589Z" fill="#AD844B"/>
<path d="M2051.7 527.469L2074.94 505.604L2078.58 509.469L2055.34 531.333L2051.7 527.469Z" fill="#AD844B"/>
<path d="M470.275 475.24L474.031 471.484L496.588 494.047L492.833 497.802L470.275 475.24Z" fill="#AD844B"/>
<path d="M525.438 522.849L521.672 526.615L550.484 555.427L554.25 551.661L525.438 522.849ZM565.125 562.437L561.312 566.198L590.125 594.963L593.885 591.198L565.125 562.437Z" fill="#AD844B"/>
<path d="M608.219 605.682L604.453 609.443L647.646 652.641L651.411 648.875L608.219 605.682ZM680.224 677.693L676.464 681.401L705.276 710.214L709.036 706.453L680.224 677.693ZM719.812 717.276L716.047 721.042L744.859 749.802L748.573 746.089L719.812 717.276ZM763.005 760.422L759.245 764.182L802.49 807.375L806.198 803.667L763.005 760.422ZM835.016 832.427L831.25 836.24L860.062 865.005L863.776 861.292L835.016 832.427ZM874.547 872.115L870.839 875.828L899.599 904.641L903.411 900.88L874.547 872.115ZM917.792 915.312L914.031 919.021L925.01 930C926.245 928.714 927.484 927.474 928.724 926.24L917.792 915.312Z" fill="#AD844B"/>
<path d="M1538.43 231.089L1546.54 200.229L1551.67 201.578L1543.56 232.437L1538.43 231.089Z" fill="#AD844B"/>
<path d="M1527.93 270.49L1517.57 309.87L1522.67 311.208L1533.03 271.828L1527.93 270.49ZM1513.65 324.661L1503.29 364.094L1508.39 365.38L1518.75 326L1513.65 324.661Z" fill="#AD844B"/>
<path d="M1498.14 383.729L1482.57 442.802L1487.67 444.141L1503.24 385.021L1498.14 383.729ZM1472.21 482.182L1461.85 521.615L1466.95 522.953L1477.31 483.573L1472.21 482.182ZM1457.93 536.354L1447.57 575.786L1452.78 577.073L1463.14 537.693L1457.93 536.354ZM1442.37 595.474L1426.85 654.547L1431.95 655.885L1447.52 596.818L1442.31 595.474H1442.37ZM1416.49 693.927L1406.13 733.359L1411.33 734.698L1421.65 695.318L1416.54 693.927H1416.49ZM1402.21 748.151L1392.26 785.984L1391.85 787.531L1397.06 788.87L1397.47 787.328L1407.37 749.49L1402.26 748.151H1402.21Z" fill="#AD844B"/>
<path d="M981.119 194.031L986.249 192.672L994.442 223.505L989.312 224.87L981.119 194.031Z" fill="#AD844B"/>
<path d="M1004.91 262.859L999.697 264.198L1010.21 303.526L1015.42 302.24L1004.91 262.859ZM1019.29 316.979L1014.18 318.323L1024.7 357.703L1029.75 356.359L1019.34 316.979H1019.29Z" fill="#AD844B"/>
<path d="M1035.06 376.052L1029.85 377.391L1045.52 436.464L1050.73 435.068L1035.06 376.052ZM1061.19 474.448L1056.09 475.844L1066.5 515.224L1071.71 513.828L1061.19 474.448ZM1075.57 528.625L1070.47 530.016L1080.98 569.396L1086.04 568.005L1075.62 528.625H1075.57ZM1091.29 587.693L1086.09 589.031L1101.75 648.104L1106.96 646.766L1091.29 587.693ZM1117.43 686.146L1112.32 687.484L1122.73 726.865L1127.94 725.526L1117.43 686.146ZM1131.81 740.318L1126.7 741.604L1137.22 780.984L1142.27 779.646L1131.86 740.318H1131.81Z" fill="#AD844B"/>
<path d="M795.067 1264.73V1270.04H769.859C769.807 1269.32 769.807 1268.6 769.807 1267.88C769.807 1266.8 769.807 1265.77 769.859 1264.73H795.067Z" fill="#AD844B"/>
<path d="M801.818 1147.01C801.354 1148.76 800.891 1150.46 800.531 1152.16L784.344 1148.09C784.703 1146.39 785.12 1144.64 785.635 1142.93L801.818 1147.01Z" fill="#AD844B"/>
<path d="M851.923 1025.52C850.99 1027.06 850.115 1028.6 849.24 1030.15L834.756 1021.8C835.631 1020.26 836.511 1018.71 837.438 1017.16L851.923 1025.52Z" fill="#AD844B"/>
<path d="M928.822 926.24C927.536 927.526 926.296 928.766 925.114 930L914.135 919.021L917.895 915.312L928.822 926.24Z" fill="#AD844B"/>
<path d="M1029.34 849.901L1025.93 851.859C1025.93 851.859 1025.57 852.068 1025.42 852.167C1025.21 852.219 1024.95 852.375 1024.75 852.531L1016.4 838.047C1017.94 837.068 1019.49 836.24 1021.04 835.312L1029.39 849.849L1029.34 849.901Z" fill="#AD844B"/>
<path d="M1270.52 770.214V786.911H1265.2V770.214C1265.93 770.161 1266.75 770.161 1267.47 770.161C1268.51 770.161 1269.48 770.161 1270.52 770.214Z" fill="#AD844B"/>
<path d="M1392.26 785.984C1394.02 786.396 1395.72 786.911 1397.42 787.375L1397.01 788.922L1391.85 787.531L1392.26 785.984Z" fill="#AD844B"/>
<path d="M1694.99 1023.81L1692.3 1019.22L1697.1 1016.44C1698.08 1017.99 1698.9 1019.48 1699.78 1021.03L1694.99 1023.81Z" fill="#AD844B"/>
<mask id="mask4_78_114" style="mask-type:luminance" maskUnits="userSpaceOnUse" x="1748" y="1265" width="18" height="7">
<path d="M1748 1265.33H1765.33V1271.87H1748V1265.33Z" fill="white"/>
</mask>
<g mask="url(#mask4_78_114)">
<path d="M1765.19 1267.88C1765.19 1268.96 1765.19 1269.99 1765.14 1271.02H1748.64C1748.64 1270.09 1748.59 1269.22 1748.49 1268.34V1268.24C1748.49 1267.36 1748.39 1266.54 1748.33 1265.66H1765.14C1765.19 1266.38 1765.19 1267.1 1765.19 1267.82V1267.88Z" fill="#AD844B"/>
</g>
<path d="M786.511 1264.73H795.016V1270.04H786.511C786.459 1269.32 786.459 1268.6 786.459 1267.88C786.459 1266.8 786.459 1265.77 786.511 1264.73Z" fill="#AD844B"/>
<path d="M1267.47 786.859C1268.51 786.859 1269.48 786.859 1270.52 786.911H1265.2C1265.93 786.859 1266.75 786.859 1267.47 786.859Z" fill="#AD844B"/>
<path d="M1265.15 0.395782H1270.46V32.2968H1265.15V0.395782Z" fill="#AD844B"/>
<path d="M1265.15 125.234V164.359H1270.46V125.234H1265.15ZM1265.15 71.4739V110.542H1270.46V71.4739H1265.15Z" fill="#AD844B"/>
<path d="M1265.15 183.943V242.651H1270.46V183.943H1265.15ZM1265.15 281.724V320.896H1270.46V281.724H1265.15ZM1265.15 335.536V374.661H1270.46V335.536H1265.15ZM1265.15 394.245V452.953H1270.46V394.245H1265.15ZM1265.15 492.026V531.151H1270.46V492.026H1265.15ZM1265.15 545.839V584.964H1270.46V545.839H1265.15ZM1265.15 604.547V663.255H1270.46V604.547H1265.15ZM1265.15 702.328V741.453H1270.46V702.328H1265.15ZM1265.15 756.141V786.911H1270.46V756.141H1265.15Z" fill="#AD844B"/>
<path d="M2319.14 657.328L2285.22 676.917L2287.95 681.505L2321.87 661.917L2319.14 657.328ZM2272.59 684.188L2238.68 703.771L2241.31 708.411L2275.22 688.823L2272.59 684.188ZM2204.81 723.307L2153.99 752.74L2156.62 757.276L2207.44 728L2204.81 723.359V723.307ZM2137.03 762.432L2103.12 782.016L2105.75 786.604L2139.66 767.016L2137.03 762.432ZM2090.39 789.286L2056.57 808.922L2059.2 813.458L2093.12 793.922L2090.39 789.286ZM2022.66 828.406L1971.83 857.734L1974.46 862.375L2025.33 832.943L2022.6 828.354L2022.66 828.406ZM1954.92 867.531L1921.01 887.115L1923.64 891.703L1957.55 872.167L1954.92 867.531ZM1908.28 894.49L1874.36 914.021L1876.99 918.661L1910.91 899.021L1908.28 894.49ZM1840.5 933.557L1789.67 962.885L1792.3 967.474L1843.13 938.198L1840.5 933.557ZM1772.71 972.682L1738.8 992.266L1741.53 996.854L1775.34 977.266L1772.71 972.682ZM1726.17 999.536L1697.1 1016.34L1692.3 1019.12L1694.93 1023.71L1699.73 1020.93L1728.8 1004.17L1726.17 999.536Z" fill="#AD844B"/>
<path d="M2336.1 647.745L2363.73 631.797L2366.39 636.396L2338.75 652.344L2336.1 647.745Z" fill="#AD844B"/>
<mask id="mask5_78_114" style="mask-type:luminance" maskUnits="userSpaceOnUse" x="2502" y="1265" width="34" height="7">
<path d="M2502.67 1265.33H2535.01V1271.87H2502.67V1265.33Z" fill="white"/>
</mask>
<g mask="url(#mask5_78_114)">
<path d="M2502.89 1265.66H2534.8V1270.97H2502.89V1265.66Z" fill="#AD844B"/>
</g>
<mask id="mask6_78_114" style="mask-type:luminance" maskUnits="userSpaceOnUse" x="2370" y="1265" width="94" height="7">
<path d="M2370.67 1265.33H2464V1271.87H2370.67V1265.33Z" fill="white"/>
</mask>
<g mask="url(#mask6_78_114)">
<path d="M2370.84 1265.66V1270.97H2409.96V1265.66H2370.84ZM2424.65 1265.66V1270.97H2463.77V1265.66H2424.65Z" fill="#AD844B"/>
</g>
<mask id="mask7_78_114" style="mask-type:luminance" maskUnits="userSpaceOnUse" x="1748" y="1265" width="604" height="7">
<path d="M1748 1265.33H2352V1271.87H1748V1265.33Z" fill="white"/>
</mask>
<g mask="url(#mask7_78_114)">
<path d="M1748.33 1265.66C1748.39 1266.48 1748.49 1267.36 1748.49 1268.19V1268.29C1748.59 1269.17 1748.59 1270.04 1748.59 1270.92H1779V1265.61H1748.28L1748.33 1265.66ZM1793.74 1265.66V1270.97H1832.86V1265.66H1793.74ZM1872.04 1265.66V1270.97H1930.7V1265.66H1872.04ZM1950.29 1265.66V1270.97H1989.41V1265.66H1950.29ZM2004.1 1265.66V1270.97H2043.22V1265.66H2004.1ZM2082.34 1265.66V1270.97H2141.05V1265.66H2082.34ZM2160.64 1265.66V1270.97H2199.76V1265.66H2160.64ZM2214.4 1265.66V1270.97H2253.57V1265.66H2214.4ZM2292.7 1265.66V1270.97H2351.46V1265.66H2292.7Z" fill="#AD844B"/>
</g>
<path d="M1883.01 196.12L1898.97 168.495L1903.57 171.151L1887.6 198.776L1883.01 196.12Z" fill="#AD844B"/>
<path d="M1863.54 230.078L1843.95 263.995L1848.54 266.62L1868.13 232.703L1863.54 230.078ZM1836.58 276.724L1816.99 310.641L1821.63 313.271L1841.22 279.354L1836.58 276.724Z" fill="#AD844B"/>
<path d="M1807.3 327.495L1777.97 378.266L1782.56 381L1811.89 330.177L1807.3 327.547V327.495ZM1758.39 412.13L1738.8 446.047L1743.39 448.677L1762.97 414.865L1758.39 412.13ZM1731.53 458.781L1711.94 492.698L1716.48 495.323L1736.12 461.406L1731.53 458.781ZM1702.2 509.656L1672.87 560.479L1677.46 563.104L1706.79 512.281L1702.2 509.656ZM1653.29 594.344L1633.7 628.26L1638.29 630.885L1657.88 596.974L1653.29 594.344ZM1626.43 640.885L1606.79 674.802L1611.43 677.432L1631.02 643.516L1626.43 640.885ZM1597 691.708L1567.72 742.531L1572.31 745.161L1601.64 694.339L1597 691.708ZM1548.14 776.396L1528.55 810.312L1533.14 812.943L1552.72 779.026L1548.14 776.396ZM1521.18 823.047L1514.06 835.365C1515.61 836.292 1517.21 837.172 1518.7 838.099L1525.81 825.729L1521.18 823.099V823.047Z" fill="#AD844B"/>
<path d="M631.318 171.24L635.917 168.583L651.87 196.214L647.271 198.87L631.318 171.24Z" fill="#AD844B"/>
<path d="M671.464 230.078L666.875 232.703L686.411 266.62L691.047 263.995L671.464 230.078ZM698.318 276.724L693.729 279.354L713.318 313.271L717.906 310.641L698.318 276.724Z" fill="#AD844B"/>
<path d="M727.698 327.495L723.109 330.125L752.385 380.948L757.026 378.214L727.698 327.443V327.495ZM776.615 412.13L771.974 414.865L791.615 448.677L796.198 446.047L776.615 412.13ZM803.469 458.781L798.88 461.406L818.469 495.323L823.057 492.698L803.469 458.781ZM832.797 509.656L828.156 512.281L857.589 563.104L862.177 560.479L832.849 509.656H832.797ZM881.661 594.344L877.125 596.974L896.661 630.885L901.302 628.26L881.661 594.344ZM908.62 640.885L904.031 643.516L923.62 677.432L928.208 674.802L908.62 640.885ZM937.948 691.708L933.359 694.339L962.688 745.161L967.276 742.531L937.948 691.708ZM986.865 776.396L982.224 779.026L1001.81 812.943L1006.45 810.312L986.865 776.396ZM1020.89 835.365L1013.77 823.047L1009.18 825.677L1016.3 838.047L1024.65 852.531C1024.65 852.531 1025.11 852.167 1025.32 852.12C1025.47 852.068 1025.73 851.964 1025.83 851.807L1029.23 849.849L1020.89 835.312V835.365Z" fill="#AD844B"/>
<path d="M166.9 636.167L169.557 631.568L197.187 647.521L194.531 652.12L166.9 636.167Z" fill="#AD844B"/>
<path d="M231.115 667.125L228.49 671.714L262.402 691.297L265.032 686.708L231.115 667.125ZM277.662 693.979L275.032 698.62L308.949 718.203L311.579 713.568L277.662 693.979Z" fill="#AD844B"/>
<path d="M328.536 723.359L325.906 727.948L376.729 757.276L379.359 752.688L328.536 723.359ZM413.224 772.276L410.594 776.865L444.406 796.5L447.141 791.859L413.224 772.276ZM459.766 799.234L457.141 803.771L491.057 823.354L493.682 818.818L459.766 799.234ZM510.589 828.51L507.964 833.099L558.839 862.531L561.464 857.891L510.589 828.562V828.51ZM595.328 877.427L592.703 882.016L626.62 901.599L629.245 897.01L595.328 877.427ZM641.875 904.281L639.245 908.87L673.161 928.505L675.792 923.87L641.875 904.281ZM692.75 933.609L690.016 938.25L740.839 967.526L743.573 962.938L692.75 933.609ZM777.385 982.526L774.755 987.115L808.672 1006.7L811.302 1002.11L777.385 982.526ZM837.385 1017.11L823.984 1009.38L821.354 1014.02L834.651 1021.75L849.135 1030.05C849.964 1028.51 850.891 1027.01 851.766 1025.46L837.333 1017.11H837.385Z" fill="#AD844B"/>
<mask id="mask8_78_114" style="mask-type:luminance" maskUnits="userSpaceOnUse" x="0" y="1264" width="34" height="7">
<path d="M0.146484 1264H33.334V1270.67H0.146484V1264Z" fill="white"/>
</mask>
<g mask="url(#mask8_78_114)">
<path d="M0.146484 1264.73H32.0527V1270.04H0.146484V1264.73Z" fill="#AD844B"/>
</g>
<path d="M71.1719 1264.73V1270.04H110.297V1264.73H71.1719ZM124.984 1264.73V1270.04H164.109V1264.73H124.984Z" fill="#AD844B"/>
<path d="M183.641 1264.73V1270.04H242.406V1264.73H183.641ZM281.474 1264.73V1270.04H320.547V1264.73H281.474ZM335.234 1264.73V1270.04H374.411V1264.73H335.234ZM393.948 1264.73V1270.04H452.656V1264.73H393.948ZM491.776 1264.73V1270.04H530.901V1264.73H491.776ZM545.536 1264.73V1270.04H584.714V1264.73H545.536ZM604.297 1264.73V1270.04H662.958V1264.73H604.297ZM702.078 1264.73V1270.04H741.203V1264.73H702.078ZM755.839 1264.73V1270.04H794.964V1264.73H755.839Z" fill="#AD844B"/>
<path d="M2282.23 1020.87L2242.7 1030.46L2243.89 1035.56L2283.57 1026.08L2282.29 1020.82L2282.23 1020.87ZM2227.8 1034.02L2188.11 1043.55L2189.4 1048.76L2228.94 1039.22L2227.75 1034.02H2227.8ZM2148.58 1053.14L2089.15 1067.47L2090.39 1072.68L2149.81 1058.35L2148.58 1053.14ZM2069.35 1072.16L2029.77 1081.75L2031.01 1086.85L2070.69 1077.37L2069.41 1072.11L2069.35 1072.16ZM2014.87 1085.31L1975.29 1094.84L1976.52 1100.05L2016.11 1090.51L2014.87 1085.31ZM1935.7 1104.43L1876.27 1118.76L1877.45 1123.96L1936.89 1109.64L1935.7 1104.43ZM1856.47 1123.45L1816.79 1133.04L1818.07 1138.14L1857.66 1128.66L1856.42 1123.4L1856.47 1123.45ZM1801.99 1136.59L1762.41 1146.13L1763.64 1151.33L1803.23 1141.8L1801.99 1136.59Z" fill="#AD844B"/>
<path d="M2302.12 1016.09L2333.14 1008.62L2334.38 1013.78L2303.36 1021.26L2302.12 1016.09Z" fill="#AD844B"/>
<path d="M230.297 1006.98L231.604 1001.83L262.526 1009.71L261.214 1014.86L230.297 1006.98Z" fill="#AD844B"/>
<path d="M301.99 1019.69L300.703 1024.74L340.13 1034.84L341.474 1029.74L301.99 1019.74V1019.69ZM356.266 1033.51L354.927 1038.6L394.411 1048.71L395.75 1043.6L356.266 1033.51Z" fill="#AD844B"/>
<path d="M415.49 1048.6L414.203 1053.71L473.375 1068.86L474.714 1063.66L415.49 1048.55V1048.6ZM514.198 1073.76L512.859 1078.86L552.344 1088.96L553.63 1083.76L514.198 1073.76ZM568.422 1087.57L567.188 1092.78L606.62 1102.78L607.906 1097.68L568.422 1087.57ZM627.651 1102.68L626.359 1107.78L685.583 1122.93L686.823 1117.73L627.651 1102.63V1102.68ZM726.307 1127.83L725.016 1132.93L764.5 1143.04L765.839 1137.83L726.307 1127.83ZM785.583 1142.93L780.635 1141.65L779.292 1146.85L784.292 1148.09L800.427 1152.21C800.839 1150.51 801.25 1148.81 801.714 1147.01L785.583 1142.93Z" fill="#AD844B"/>
<path d="M2036.88 541.406L2007.24 569.292L2010.85 573.156L2040.54 545.271L2036.88 541.406ZM1996.06 579.703L1966.42 607.589L1970.08 611.453L1999.77 583.568L1996.06 579.703ZM1936.68 635.526L1892.19 677.38L1895.85 681.198L1940.34 639.339L1936.68 635.526ZM1877.3 691.297L1847.61 719.234L1851.27 723.099L1880.96 695.161L1877.3 691.297ZM1836.53 729.646L1806.84 757.583L1810.49 761.448L1840.19 733.516L1836.53 729.646ZM1777.09 785.469L1732.61 827.323L1736.22 831.141L1780.81 789.286L1777.15 785.469H1777.09ZM1717.71 841.24L1688.03 869.125L1691.69 872.995L1721.32 845.109L1717.71 841.24ZM1676.94 879.589L1647.2 907.474L1650.91 911.344L1680.55 883.458L1676.94 879.589Z" fill="#AD844B"/>
<path d="M2051.7 527.469L2074.94 505.604L2078.58 509.469L2055.34 531.333L2051.7 527.469Z" fill="#AD844B"/>
<path d="M470.275 475.24L474.031 471.484L496.588 494.047L492.833 497.802L470.275 475.24Z" fill="#AD844B"/>
<path d="M525.438 522.849L521.672 526.615L550.484 555.427L554.25 551.661L525.438 522.849ZM565.125 562.437L561.312 566.198L590.125 594.963L593.885 591.198L565.125 562.437Z" fill="#AD844B"/>
<path d="M608.219 605.682L604.453 609.443L647.646 652.641L651.411 648.875L608.219 605.682ZM680.224 677.693L676.464 681.401L705.276 710.214L709.036 706.453L680.224 677.693ZM719.812 717.276L716.047 721.042L744.859 749.802L748.573 746.089L719.812 717.276ZM763.005 760.422L759.245 764.182L802.49 807.375L806.198 803.667L763.005 760.422ZM835.016 832.427L831.25 836.24L860.062 865.005L863.776 861.292L835.016 832.427ZM874.547 872.115L870.839 875.828L899.599 904.641L903.411 900.88L874.547 872.115ZM917.792 915.312L914.031 919.021L925.01 930C926.245 928.714 927.484 927.474 928.724 926.24L917.792 915.312Z" fill="#AD844B"/>
<path d="M1538.43 231.089L1546.54 200.229L1551.67 201.578L1543.56 232.437L1538.43 231.089Z" fill="#AD844B"/>
<path d="M1527.93 270.49L1517.57 309.87L1522.67 311.208L1533.03 271.828L1527.93 270.49ZM1513.65 324.661L1503.29 364.094L1508.39 365.38L1518.75 326L1513.65 324.661Z" fill="#AD844B"/>
<path d="M1498.14 383.729L1482.57 442.802L1487.67 444.141L1503.24 385.021L1498.14 383.729ZM1472.21 482.182L1461.85 521.615L1466.95 522.953L1477.31 483.573L1472.21 482.182ZM1457.93 536.354L1447.57 575.786L1452.78 577.073L1463.14 537.693L1457.93 536.354ZM1442.37 595.474L1426.85 654.547L1431.95 655.885L1447.52 596.818L1442.31 595.474H1442.37ZM1416.49 693.927L1406.13 733.359L1411.33 734.698L1421.65 695.318L1416.54 693.927H1416.49ZM1402.21 748.151L1392.26 785.984L1391.85 787.531L1397.06 788.87L1397.47 787.328L1407.37 749.49L1402.26 748.151H1402.21Z" fill="#AD844B"/>
<path d="M981.119 194.031L986.249 192.672L994.442 223.505L989.312 224.87L981.119 194.031Z" fill="#AD844B"/>
<path d="M1004.91 262.859L999.697 264.198L1010.21 303.526L1015.42 302.24L1004.91 262.859ZM1019.29 316.979L1014.18 318.323L1024.7 357.703L1029.75 356.359L1019.34 316.979H1019.29Z" fill="#AD844B"/>
<path d="M1035.06 376.052L1029.85 377.391L1045.52 436.464L1050.73 435.068L1035.06 376.052ZM1061.19 474.448L1056.09 475.844L1066.5 515.224L1071.71 513.828L1061.19 474.448ZM1075.57 528.625L1070.47 530.016L1080.98 569.396L1086.04 568.005L1075.62 528.625H1075.57ZM1091.29 587.693L1086.09 589.031L1101.75 648.104L1106.96 646.766L1091.29 587.693ZM1117.43 686.146L1112.32 687.484L1122.73 726.865L1127.94 725.526L1117.43 686.146ZM1131.81 740.318L1126.7 741.604L1137.22 780.984L1142.27 779.646L1131.86 740.318H1131.81Z" fill="#AD844B"/>
<path d="M795.067 1264.73V1270.04H769.859C769.807 1269.32 769.807 1268.6 769.807 1267.88C769.807 1266.8 769.807 1265.77 769.859 1264.73H795.067Z" fill="#AD844B"/>
<path d="M801.818 1147.01C801.354 1148.76 800.891 1150.46 800.531 1152.16L784.344 1148.09C784.703 1146.39 785.12 1144.64 785.635 1142.93L801.818 1147.01Z" fill="#AD844B"/>
<path d="M851.923 1025.52C850.99 1027.06 850.115 1028.6 849.24 1030.15L834.756 1021.8C835.631 1020.26 836.511 1018.71 837.438 1017.16L851.923 1025.52Z" fill="#AD844B"/>
<path d="M928.822 926.24C927.536 927.526 926.296 928.766 925.114 930L914.135 919.021L917.895 915.312L928.822 926.24Z" fill="#AD844B"/>
<path d="M1029.34 849.901L1025.93 851.859C1025.93 851.859 1025.57 852.068 1025.42 852.167C1025.21 852.219 1024.95 852.375 1024.75 852.531L1016.4 838.047C1017.94 837.068 1019.49 836.24 1021.04 835.312L1029.39 849.849L1029.34 849.901Z" fill="#AD844B"/>
<path d="M1270.52 770.214V786.911H1265.2V770.214C1265.93 770.161 1266.75 770.161 1267.47 770.161C1268.51 770.161 1269.48 770.161 1270.52 770.214Z" fill="#AD844B"/>
<path d="M1392.26 785.984C1394.02 786.396 1395.72 786.911 1397.42 787.375L1397.01 788.922L1391.85 787.531L1392.26 785.984Z" fill="#AD844B"/>
<path d="M1694.99 1023.81L1692.3 1019.22L1697.1 1016.44C1698.08 1017.99 1698.9 1019.48 1699.78 1021.03L1694.99 1023.81Z" fill="#AD844B"/>
<mask id="mask9_78_114" style="mask-type:luminance" maskUnits="userSpaceOnUse" x="1748" y="1265" width="18" height="7">
<path d="M1748 1265.33H1765.33V1271.87H1748V1265.33Z" fill="white"/>
</mask>
<g mask="url(#mask9_78_114)">
<path d="M1765.19 1267.88C1765.19 1268.96 1765.19 1269.99 1765.14 1271.02H1748.64C1748.64 1270.09 1748.59 1269.22 1748.49 1268.34V1268.24C1748.49 1267.36 1748.39 1266.54 1748.33 1265.66H1765.14C1765.19 1266.38 1765.19 1267.1 1765.19 1267.82V1267.88Z" fill="#AD844B"/>
</g>
<path d="M786.511 1264.73H795.016V1270.04H786.511C786.459 1269.32 786.459 1268.6 786.459 1267.88C786.459 1266.8 786.459 1265.77 786.511 1264.73Z" fill="#AD844B"/>
<path d="M1267.47 786.859C1268.51 786.859 1269.48 786.859 1270.52 786.911H1265.2C1265.93 786.859 1266.75 786.859 1267.47 786.859Z" fill="#AD844B"/>
</svg>
