<svg width="356" height="229" viewBox="0 0 356 229" fill="none" xmlns="http://www.w3.org/2000/svg">
<g clip-path="url(#clip0_133_1454)">
<path d="M258.303 214.841L256.453 191.875L251.168 216.161C251.168 216.161 251.238 222.288 251.413 229H258.184C258.412 221.328 258.303 214.841 258.303 214.841Z" fill="#F2F2F2"/>
<path d="M163.196 223.009C162.675 220.862 162.308 218.68 162.096 216.48L161.356 208.536C161.045 206.36 160.725 204.443 160.404 202.75C158.048 190.685 155.616 190.249 155.616 190.249C155.511 190.329 155.41 190.417 155.305 190.509C155.019 190.768 154.753 191.049 154.509 191.348C150.635 196.266 148.007 209.023 146.627 217.485C145.864 222.16 145.484 225.523 145.484 225.523C145.484 225.523 145.83 226.956 146.3 229H163.977C163.91 226.983 163.648 224.976 163.196 223.009Z" fill="#F2F2F2"/>
<path d="M302.19 0H53.8097C24.2144 0 0 24.1894 0 53.7542V175.246C0 204.811 24.2144 229 53.8097 229H132.533L131.517 224.222C131.517 224.222 128.904 207.378 131.517 194.246C132.361 190.125 132.94 185.955 133.25 181.761C133.577 177.026 134.352 172.332 135.564 167.743C135.633 167.478 135.711 167.216 135.783 166.952C135.146 166.779 134.853 166.64 135.001 166.553C135.409 166.312 135.634 165.574 135.746 164.638C136.442 158.441 137.769 152.331 139.707 146.404C137.067 148.059 135.314 148.235 134.166 147.594C130.133 146.493 131.807 137.433 131.807 137.433C131.807 137.433 134.314 117.835 135.146 110.739C135.625 106.66 141.757 104.349 147.186 103.094C147.758 101.868 148.17 100.634 147.909 99.3377C147.891 99.2504 147.866 99.166 147.842 99.0808C147.152 97.5493 145.749 96.2892 145.223 94.7032C144.989 94.2763 144.825 93.8153 144.735 93.3372C144.269 90.618 146.814 88.269 147.548 85.6538C146.8 84.9315 146.241 84.0361 145.921 83.0467C144.802 80.7554 145.348 78.0052 148.939 75.8818C149.656 75.4579 150.415 75.0837 151.187 74.7248C151.47 74.5423 151.777 74.4014 152.1 74.3066C154.67 73.1456 157.252 72.0221 158.79 69.7615C159.186 69.1794 159.533 68.504 160.174 68.1979C160.476 68.0689 160.799 67.9967 161.127 67.9848C166.078 67.6051 170.561 71.8465 175.489 71.2386C176.982 71.0545 178.505 70.4276 179.938 70.8788C180.88 71.1753 181.614 71.8978 182.247 72.6448C183.969 74.6984 185.216 77.1066 185.899 79.6972C186.582 82.2879 186.684 84.9973 186.198 87.6319C185.573 90.8746 184.054 94.217 185.149 97.3369C185.953 99.6293 188.107 101.49 188.122 103.915C188.135 105.91 186.717 107.503 185.347 109.055C185.525 109.237 185.699 109.424 185.868 109.616C189.216 113.426 188.583 116.679 188.111 117.981L188.111 117.981L186.39 134.578L184.938 145.712C184.938 145.712 184.579 150.281 181.198 151.283C180.213 151.739 178.923 151.859 177.227 151.343C176.126 151.008 175.199 150.674 174.412 150.349C175.156 152.722 176.436 157.568 176.228 162.27C175.938 168.837 176.809 169.408 176.809 169.408C176.754 169.475 176.692 169.536 176.624 169.59C180.073 177.202 180.104 185.011 176.518 192.818C172.454 201.668 176.809 222.224 176.809 222.224C176.809 222.224 177.119 225.43 177.258 229H239.61C238.619 219.551 237.427 210.091 236.898 209.034C236.026 207.291 237.133 178.572 237.547 168.596C237.363 168.55 237.184 168.503 237.014 168.454C236.72 168.37 236.455 168.282 236.21 168.192C236.197 168.699 236.251 169.206 236.369 169.7C236.736 170.556 235.856 171.184 234.361 171.613C235.231 175.854 236.305 183.746 232.67 185.275C228.93 186.848 228.856 177.294 229.061 172.313C228.589 172.331 228.116 172.34 227.649 172.34C223.157 172.34 228.97 120.335 228.706 116.903C228.442 113.472 230.82 99.4804 230.82 99.4804C230.82 99.4804 231.613 96.5766 233.991 96.0487C236.369 95.5207 247.732 88.9211 247.732 88.9211C248.372 88.0242 249.179 87.2602 250.111 86.6719V86.2813C250.407 86.0055 250.722 85.7507 251.054 85.5188C250.915 83.2122 250.603 80.2365 250.375 78.226C249.098 76.9258 248.235 75.2766 247.896 73.4867C247.409 73.1071 246.947 72.6969 246.512 72.2586C245.421 71.0088 244.795 69.4211 244.74 67.7636C244.691 66.1174 244.93 64.4753 245.445 62.9108C245.579 62.3909 245.785 61.8922 246.057 61.4289C246.43 60.8917 246.899 60.4273 247.44 60.0587C247.601 59.9398 247.766 59.8285 247.932 59.7164C248.282 59.0364 248.796 58.4539 249.427 58.021C250.776 57.1364 252.511 57.2086 254.124 57.2488C254.148 57.2494 254.173 57.2493 254.197 57.2494C254.496 57.2013 254.796 57.1616 255.098 57.1301C255.274 57.0952 255.436 57.0097 255.564 56.8842C255.693 56.7586 255.782 56.5984 255.82 56.4231C256.039 56.6326 256.257 56.8421 256.475 57.0516C256.803 57.0469 257.13 57.0525 257.457 57.0684C257.602 56.7372 257.772 56.4176 257.967 56.1126C258.086 56.4536 258.206 56.7946 258.326 57.1356C258.654 57.1706 258.982 57.2146 259.308 57.2711C259.564 57.0673 259.821 56.8634 260.078 56.6595C260.135 56.6142 260.34 57.2824 260.443 57.5116C260.62 57.557 260.796 57.6052 260.971 57.6592C261.244 57.6468 261.547 57.5957 261.716 57.5985C262.645 57.567 263.565 57.7961 264.371 58.2599C265.075 58.7715 265.652 59.4372 266.059 60.2061C267.097 61.847 267.742 63.7053 267.943 65.636C268.448 66.3342 268.803 67.1283 268.988 67.9694C269.425 70.6194 266.904 72.8338 266.404 75.4726C266.138 76.8805 266.442 78.4396 265.724 79.6799C265.41 80.1795 264.998 80.6107 264.513 80.9479C264.227 81.1614 263.928 81.3579 263.619 81.5364C263.635 83.1327 263.819 84.723 264.166 86.2813L264.506 87.5836C265.034 87.9644 265.605 88.4045 266.23 88.9211C266.23 88.9211 273.63 92.0889 276.272 93.6728C278.595 95.0653 281.121 95.2352 281.878 97.0491L282.086 97.1046C282.086 97.1046 284.728 126.407 284.993 131.423C285.257 136.438 288.428 167.324 287.9 168.644C287.704 169.133 286.458 169.693 284.953 170.139C285.831 174.148 287.249 182.867 283.407 184.483C279.513 186.121 279.593 175.69 279.825 170.927C279.306 170.88 278.965 170.744 278.915 170.492C278.872 170.278 278.734 169.308 278.535 167.83C278.206 167.882 277.864 167.934 277.501 167.99C277.428 168.001 277.351 168.012 277.277 168.023C280.627 178.551 273.207 206.472 271.78 211.938C271.034 214.793 270.23 221.855 269.505 229H302.19C331.786 229 356 204.811 356 175.246V53.7542C356 24.1894 331.786 0 302.19 0Z" fill="#F2F2F2"/>
<path d="M79.7 96.851C99.6128 96.851 115.755 82.1764 115.755 64.0744C115.755 45.9724 99.6128 31.2979 79.7 31.2979C59.7871 31.2979 43.6445 45.9724 43.6445 64.0744C43.6445 82.1764 59.7871 96.851 79.7 96.851Z" fill="#3F3D56"/>
<path d="M139.097 171.181C139.097 171.181 151.242 162.84 151.242 159.049C151.242 155.257 159.592 130.613 164.146 141.608C168.701 152.603 157.694 168.148 157.694 168.148C157.694 168.148 145.549 190.138 138.338 193.93C131.127 197.721 125.055 195.446 125.055 195.446V185.209L131.993 174.951C132.778 173.79 133.837 172.839 135.075 172.182C136.314 171.525 137.695 171.181 139.097 171.181Z" fill="#FFB9B9"/>
<path d="M104.578 113.111C104.578 113.111 122.779 118.86 124.677 121.514C126.574 124.168 127.333 119.618 132.647 137.059C137.96 154.499 139.289 171.371 139.289 171.371C139.289 171.371 126.195 175.731 127.713 192.792C129.231 209.853 125.436 228.431 125.436 228.431H120.698L110.255 196.204L122.779 147.295C122.779 147.295 104.974 117.219 104.578 113.111Z" fill="#575A89"/>
<path d="M98.4867 97.2491C111.063 97.2491 121.259 87.0644 121.259 74.5008C121.259 61.9372 111.063 51.7524 98.4867 51.7524C85.9102 51.7524 75.7148 61.9372 75.7148 74.5008C75.7148 87.0644 85.9102 97.2491 98.4867 97.2491Z" fill="#FFB9B9"/>
<path d="M107.219 91.5621C107.219 91.5621 100.767 112.794 106.46 115.827C112.153 118.86 118.605 132.509 118.605 132.509L108.737 143.504H85.9651L75.7178 132.13L71.543 112.794L77.2359 108.244C77.2359 108.244 83.3084 93.0787 83.3084 85.1168C83.3084 77.1548 107.219 91.5621 107.219 91.5621Z" fill="#FFB9B9"/>
<path d="M109.116 115.069C109.116 115.069 104.562 113.931 107.218 118.481C109.875 123.031 112.532 131.372 103.043 131.751C93.5551 132.13 84.0669 127.201 81.0306 116.964C77.9944 106.728 76.8558 107.486 75.7172 107.865C74.5786 108.244 62.4336 120.756 62.4336 120.756L66.6084 144.262L68.1266 228.431H123.538C123.538 228.431 125.815 204.166 122.02 198.479C118.225 192.792 125.436 178.385 125.436 178.385C125.436 178.385 131.888 168.527 126.954 149.57C122.02 130.613 111.014 115.069 109.116 115.069Z" fill="#0CA781"/>
<path d="M78.3731 107.865C78.3731 107.865 72.6801 105.211 67.7462 109.761C62.8123 114.311 51.8059 118.102 51.8059 120.377C51.8059 122.652 61.2942 187.484 54.8422 198.859C48.3902 210.233 41.5586 228.431 41.5586 228.431H73.2166C73.2166 228.431 78.3731 209.474 83.6865 199.238C89 189.001 88.6204 160.186 87.1023 151.466C85.5842 142.746 78.3731 107.865 78.3731 107.865Z" fill="#575A89"/>
<path d="M44.9727 208.337L46.821 228.431H67.3335L65.4673 203.408L44.9727 208.337Z" fill="#FFB9B9"/>
<path d="M138.34 197.721L143.274 228.431H252.958L262.446 166.632L138.34 197.721Z" fill="#3F3D56"/>
<path d="M266.622 162.461L267.761 168.148L125.816 202.271V197.342L266.622 162.461Z" fill="#3F3D56"/>
<path d="M206.654 172.698L205.895 179.143L214.244 178.006L210.828 171.561L206.654 172.698Z" fill="#3F3D56"/>
<path d="M160.73 107.486C160.73 107.486 177.43 106.349 181.984 119.239C186.539 132.13 197.165 155.258 201.34 158.67C205.515 162.082 210.069 171.181 209.31 174.215" stroke="#3F3D56" stroke-width="5" stroke-miterlimit="10"/>
<path d="M163.199 107.296C163.199 109.076 161.305 110.519 158.265 110.519C155.226 110.519 153.711 109.076 153.711 107.296C153.711 105.517 155.226 104.074 158.265 104.074C161.305 104.074 163.199 105.517 163.199 107.296Z" fill="#0CA781"/>
<path d="M135.114 166.442C135.114 166.442 137.96 154.499 132.647 137.059C127.333 119.618 126.574 124.168 124.677 121.514C122.779 118.86 104.578 113.111 104.578 113.111C104.708 114.461 106.718 118.615 109.358 123.584C108.883 121.793 108.163 120.076 107.218 118.481C104.562 113.931 109.116 115.069 109.116 115.069C111.014 115.069 122.02 130.613 126.954 149.57C131.888 168.527 125.436 178.385 125.436 178.385L135.114 166.442Z" fill="#575A89"/>
<path d="M104.75 112.983C104.75 112.983 106.997 121.498 108.91 122.738C110.822 123.978 122.167 135.752 122.167 135.752L120.69 126.253L114.618 117.154L113.003 115.983L104.75 112.983Z" fill="#575A89"/>
<path opacity="0.1" d="M54.2725 139.144L54.8017 119.618C54.8017 119.618 42.3173 124.926 41.1787 147.675C40.0401 170.423 43.0764 213.266 47.2512 213.645C51.4261 214.024 71.1617 209.474 71.1617 209.474C71.1617 209.474 74.1979 154.499 73.0593 147.296C71.9207 140.092 54.2725 139.144 54.2725 139.144Z" fill="black"/>
<path d="M55.2218 119.618H52.1455C52.1455 119.618 39.6611 124.926 38.5225 147.675C37.3839 170.423 40.4201 213.266 44.595 213.645C48.7698 214.024 68.5054 209.474 68.5054 209.474C68.5054 209.474 71.5417 154.499 70.4031 147.296C69.2645 140.092 55.2218 119.618 55.2218 119.618Z" fill="#575A89"/>
<path d="M71.3512 94.7848C84.347 94.7848 94.8821 82.9874 94.8821 68.4346C94.8821 53.8818 84.347 42.0845 71.3512 42.0845C58.3555 42.0845 47.8203 53.8818 47.8203 68.4346C47.8203 82.9874 58.3555 94.7848 71.3512 94.7848Z" fill="#3F3D56"/>
<path d="M88.2402 89.856C90.8603 89.856 92.9844 86.7157 92.9844 82.842C92.9844 78.9682 90.8603 75.8279 88.2402 75.8279C85.6201 75.8279 83.4961 78.9682 83.4961 82.842C83.4961 86.7157 85.6201 89.856 88.2402 89.856Z" fill="#FFB9B9"/>
<path d="M47.8209 61.4205C58.511 61.4205 67.177 52.7634 67.177 42.0844C67.177 31.4054 58.511 22.7483 47.8209 22.7483C37.1309 22.7483 28.4648 31.4054 28.4648 42.0844C28.4648 52.7634 37.1309 61.4205 47.8209 61.4205Z" fill="#3F3D56"/>
<path d="M50.3241 57.5748C47.5122 59.004 44.3931 59.725 41.2385 59.6747C38.0839 59.6245 34.9894 58.8046 32.2245 57.2865C29.4596 55.7684 27.1082 53.5982 25.3749 50.9647C23.6415 48.3312 22.579 45.3143 22.2797 42.1768C21.8663 44.8851 22.0339 47.6502 22.7713 50.289C23.5086 52.9277 24.7989 55.3798 26.5567 57.4827C28.3144 59.5856 30.4995 61.2913 32.9671 62.4868C35.4347 63.6823 38.1284 64.3403 40.8698 64.4171C43.6112 64.494 46.3376 63.9879 48.8684 62.9325C51.3992 61.8771 53.6765 60.2965 55.5496 58.2954C57.4226 56.2942 58.8485 53.9183 59.7328 51.325C60.6171 48.7317 60.9396 45.9802 60.679 43.253C60.2184 46.2911 59.0386 49.1756 57.2376 51.6665C55.4366 54.1575 53.0664 56.183 50.3241 57.5748Z" fill="#3F3D56"/>
<path d="M37.2012 45.2805C35.2576 42.7979 33.9509 39.8782 33.395 36.7758C32.8392 33.6733 33.0509 30.4822 34.0119 27.4802C34.9729 24.4782 36.6539 21.7564 38.9086 19.5518C41.1633 17.3472 43.9234 15.7267 46.9484 14.8313C44.2083 14.9457 41.5239 15.6405 39.0729 16.8696C36.622 18.0988 34.4605 19.8343 32.7318 21.961C31.0031 24.0878 29.7465 26.5573 29.0454 29.2059C28.3444 31.8545 28.2147 34.6217 28.6652 37.3241C29.1157 40.0265 30.1359 42.6025 31.6583 44.8812C33.1807 47.1599 35.1705 49.0894 37.4959 50.5418C39.8212 51.9943 42.429 52.9364 45.1464 53.3058C47.8638 53.6753 50.6288 53.4636 53.2581 52.6848C50.185 52.8162 47.1248 52.2129 44.3321 50.9251C41.5393 49.6372 39.0946 47.7021 37.2012 45.2805Z" fill="#3F3D56"/>
<path d="M99.8155 66.7284C107.361 66.7284 113.479 62.315 113.479 56.8708C113.479 51.4266 107.361 47.0132 99.8155 47.0132C92.2695 47.0132 86.1523 51.4266 86.1523 56.8708C86.1523 62.315 92.2695 66.7284 99.8155 66.7284Z" fill="#3F3D56"/>
</g>
<defs>
<clipPath id="clip0_133_1454">
<rect width="356" height="229" fill="white"/>
</clipPath>
</defs>
</svg>
